<svg xmlns="http://www.w3.org/2000/svg" width="16" height="14.813" viewBox="0 0 16 14.813">
    <g id="add_6_" data-name="add (6)" transform="translate(0 -19)">
        <g id="Group_451" data-name="Group 451" transform="translate(0 19)">
            <g id="Group_450" data-name="Group 450">
                <path id="Path_598" data-name="Path 598"
                    d="M399,90.688h-.562v-.562a.625.625,0,0,0-1.25,0v.563h-.562a.625.625,0,0,0,0,1.25h.563V92.5a.625.625,0,0,0,1.25,0v-.562H399a.625.625,0,0,0,0-1.25Z"
                    transform="translate(-383.625 -87.297)" fill="#303030" />
                <path id="Path_599" data-name="Path 599"
                    d="M9.857,26.195a4.016,4.016,0,1,0-4.9,0A7.408,7.408,0,0,0,0,33.188a.625.625,0,0,0,.625.625H14.188a.625.625,0,0,0,.625-.625A7.408,7.408,0,0,0,9.857,26.195ZM4.641,23.016a2.766,2.766,0,1,1,2.766,2.766A2.769,2.769,0,0,1,4.641,23.016ZM1.281,32.563a6.157,6.157,0,0,1,12.25,0Z"
                    transform="translate(0 -19)" fill="#303030" />
            </g>
        </g>
    </g>
</svg>
