<svg xmlns="http://www.w3.org/2000/svg" width="39.387" height="37.555" viewBox="0 0 39.387 37.555">
  <g id="linear_color" data-name="linear color" transform="translate(0.505 0.5)">
    <path id="Path_584" data-name="Path 584" d="M43.644,29.483a.914.914,0,0,0-.914-.914H38.662a3.959,3.959,0,0,0-7.7,0H29.524a3.959,3.959,0,0,0-7.7,0H20.385a3.959,3.959,0,0,0-7.7,0H11.049a.92.92,0,0,0-.888.7l-4.874,20.1A.914.914,0,0,0,6.176,50.5h3.96v3.351a.914.914,0,0,0,.914.914H27.225a8.225,8.225,0,0,0,16.4-.714c0-.1.022-24.569.022-24.569ZM41.816,48.714a8.3,8.3,0,0,0-1.218-1.23V41.667a.914.914,0,0,0-1.828,0V46.35a8.156,8.156,0,0,0-2.085-.622L40.4,30.4h1.414ZM11.768,30.4h.912a3.966,3.966,0,0,0,3.852,3.046.914.914,0,0,0,0-1.828A2.135,2.135,0,0,1,14.607,30.4h7.212a3.966,3.966,0,0,0,3.852,3.046.914.914,0,0,0,0-1.828A2.135,2.135,0,0,1,23.745,30.4h7.212a3.966,3.966,0,0,0,3.852,3.046.914.914,0,0,0,0-1.828A2.135,2.135,0,0,1,32.883,30.4h5.638l-1.034,4.265H10.735ZM34.81,27.35a2.135,2.135,0,0,1,1.926,1.218H32.884A2.135,2.135,0,0,1,34.81,27.35Zm-9.138,0A2.135,2.135,0,0,1,27.6,28.569H23.745a2.135,2.135,0,0,1,1.926-1.218Zm-9.138,0a2.135,2.135,0,0,1,1.926,1.218H14.607a2.135,2.135,0,0,1,1.926-1.218Zm-6.242,9.138H37.044l-2.22,9.159a8.216,8.216,0,0,0-5.809,3.026H7.337ZM11.963,50.5H27.888a8.159,8.159,0,0,0-.663,2.437H11.963Zm24.35,9.681v-.848a.914.914,0,0,0-1.828,0v.848a6.41,6.41,0,0,1-5.417-5.417h.848a.914.914,0,1,0,0-1.828h-.848a6.41,6.41,0,0,1,5.417-5.417v.847a.914.914,0,0,0,1.828,0v-.847a6.41,6.41,0,0,1,5.417,5.417h-.848a.914.914,0,0,0,0,1.828h.848a6.41,6.41,0,0,1-5.417,5.417Z" transform="translate(-5.262 -25.523)" fill="#fff" stroke="#171515" stroke-width="1"/>
    <path id="Path_585" data-name="Path 585" d="M250.179,191.349h2.437a.914.914,0,1,0,0-1.828h-2.437a.914.914,0,1,0,0,1.828Z" transform="translate(-230.683 -177.032)" fill="#fff" stroke="#171515" stroke-width="1"/>
    <path id="Path_586" data-name="Path 586" d="M170.179,191.349h2.437a.914.914,0,1,0,0-1.828h-2.437a.914.914,0,0,0,0,1.828Z" transform="translate(-156.776 -177.032)" fill="#fff" stroke="#171515" stroke-width="1"/>
    <path id="Path_587" data-name="Path 587" d="M90.179,191.349h2.437a.914.914,0,0,0,0-1.828H90.179a.914.914,0,1,0,0,1.828Z" transform="translate(-82.868 -177.032)" fill="#fff" stroke="#171515" stroke-width="1"/>
    <path id="Path_588" data-name="Path 588" d="M330.179,191.349h2.437a.914.914,0,1,0,0-1.828h-2.437a.914.914,0,0,0,0,1.828Z" transform="translate(-304.591 -177.032)" fill="#fff" stroke="#171515" stroke-width="1"/>
    <path id="Path_589" data-name="Path 589" d="M234.179,239.349h2.437a.914.914,0,1,0,0-1.828h-2.437a.914.914,0,0,0,0,1.828Z" transform="translate(-215.902 -221.377)" fill="#fff" stroke="#171515" stroke-width="1"/>
    <path id="Path_590" data-name="Path 590" d="M154.179,239.349h2.437a.914.914,0,1,0,0-1.828h-2.437a.914.914,0,0,0,0,1.828Z" transform="translate(-141.994 -221.377)" fill="#fff" stroke="#171515" stroke-width="1"/>
    <path id="Path_591" data-name="Path 591" d="M74.179,239.349h2.437a.914.914,0,1,0,0-1.828H74.179a.914.914,0,1,0,0,1.828Z" transform="translate(-68.086 -221.377)" fill="#fff" stroke="#171515" stroke-width="1"/>
    <path id="Path_592" data-name="Path 592" d="M314.179,239.349h2.437a.914.914,0,1,0,0-1.828h-2.437a.914.914,0,1,0,0,1.828Z" transform="translate(-289.809 -221.377)" fill="#fff" stroke="#171515" stroke-width="1"/>
    <path id="Path_593" data-name="Path 593" d="M226.179,287.349h2.437a.914.914,0,0,0,0-1.828h-2.437a.914.914,0,0,0,0,1.828Z" transform="translate(-208.511 -265.721)" fill="#fff" stroke="#171515" stroke-width="1"/>
    <path id="Path_594" data-name="Path 594" d="M146.179,287.349h2.437a.914.914,0,0,0,0-1.828h-2.437a.914.914,0,0,0,0,1.828Z" transform="translate(-134.603 -265.721)" fill="#fff" stroke="#171515" stroke-width="1"/>
    <path id="Path_595" data-name="Path 595" d="M69.53,286.435a.914.914,0,0,0-.914-.914H66.179a.914.914,0,0,0,0,1.828h2.437A.914.914,0,0,0,69.53,286.435Z" transform="translate(-60.696 -265.721)" fill="#fff" stroke="#171515" stroke-width="1"/>
    <path id="Path_596" data-name="Path 596" d="M362.139,353.789l-1.971,1.971-1.848-.924a.914.914,0,0,0-.817,1.635l2.437,1.218a.914.914,0,0,0,1.055-.171l2.437-2.437a.914.914,0,0,0-1.292-1.292Z" transform="translate(-330.211 -328.543)" fill="#fff" stroke="#171515" stroke-width="1"/>
  </g>
</svg>
