<svg xmlns="http://www.w3.org/2000/svg" width="17.805" height="16.414" viewBox="0 0 17.805 16.414">
  <g id="calendar_9_" data-name="calendar (9)" transform="translate(0 -20)">
    <g id="Group_437" data-name="Group 437" transform="translate(0 20)">
      <g id="Group_436" data-name="Group 436" transform="translate(0 0)">
        <path id="Path_597" data-name="Path 597" d="M17.11,21.4H13.685v-.7a.7.7,0,0,0-1.391,0v.7H5.512v-.7a.7.7,0,0,0-1.391,0v.7H.7a.7.7,0,0,0-.7.7V35.719a.7.7,0,0,0,.7.7H17.11a.7.7,0,0,0,.7-.7V22.092A.7.7,0,0,0,17.11,21.4Zm-.7,13.626H1.391V22.788H4.121v.7a.7.7,0,0,0,1.391,0v-.7h6.782v.7a.7.7,0,0,0,1.391,0v-.7h2.73Z" transform="translate(0 -20)" fill="#303030"/>
      </g>
    </g>
    <g id="Group_439" data-name="Group 439" transform="translate(7.964 26.536)">
      <g id="Group_438" data-name="Group 438" transform="translate(0 0)">
        <circle id="Ellipse_108" data-name="Ellipse 108" cx="0.939" cy="0.939" r="0.939" fill="#303030"/>
      </g>
    </g>
    <g id="Group_441" data-name="Group 441" transform="translate(7.964 30.623)">
      <g id="Group_440" data-name="Group 440">
        <circle id="Ellipse_109" data-name="Ellipse 109" cx="0.939" cy="0.939" r="0.939" fill="#303030"/>
      </g>
    </g>
    <g id="Group_443" data-name="Group 443" transform="translate(3.877 26.536)">
      <g id="Group_442" data-name="Group 442" transform="translate(0 0)">
        <circle id="Ellipse_110" data-name="Ellipse 110" cx="0.939" cy="0.939" r="0.939" fill="#303030"/>
      </g>
    </g>
    <g id="Group_445" data-name="Group 445" transform="translate(12.05 26.536)">
      <g id="Group_444" data-name="Group 444" transform="translate(0 0)">
        <circle id="Ellipse_111" data-name="Ellipse 111" cx="0.939" cy="0.939" r="0.939" fill="#303030"/>
      </g>
    </g>
    <g id="Group_447" data-name="Group 447" transform="translate(3.877 30.623)">
      <g id="Group_446" data-name="Group 446">
        <circle id="Ellipse_112" data-name="Ellipse 112" cx="0.939" cy="0.939" r="0.939" fill="#303030"/>
      </g>
    </g>
    <g id="Group_449" data-name="Group 449" transform="translate(12.05 30.623)">
      <g id="Group_448" data-name="Group 448">
        <circle id="Ellipse_113" data-name="Ellipse 113" cx="0.939" cy="0.939" r="0.939" fill="#303030"/>
      </g>
    </g>
  </g>
</svg>
