<svg id="cardio_1_" data-name="cardio (1)" xmlns="http://www.w3.org/2000/svg" width="31.163" height="35.443" viewBox="0 0 31.163 35.443">
  <g id="Group_35" data-name="Group 35" transform="translate(22.223 0)">
    <g id="Group_34" data-name="Group 34">
      <path id="Path_101" data-name="Path 101" d="M360.488,3.6,359.907.976a1.245,1.245,0,0,0-2.432.538l.348,1.575-5.086,1.929a1.246,1.246,0,0,0-.776,1.424l2.45,11.489,2.631.395L354.62,6.968l5.094-1.932A1.245,1.245,0,0,0,360.488,3.6Z" transform="translate(-351.934 0)"/>
    </g>
  </g>
  <g id="Group_37" data-name="Group 37" transform="translate(0 17.831)">
    <g id="Group_36" data-name="Group 36">
      <path id="Path_102" data-name="Path 102" d="M57.644,270.484a5.156,5.156,0,0,0,1.127-9.915s-19.547-2.984-20.066-2.984A7.793,7.793,0,0,0,34.284,271.8L33.01,273.07a1.245,1.245,0,1,0,1.761,1.761l1.84-1.839c.026-.026.051-.054.074-.082a7.779,7.779,0,0,0,2.021.266c.839,0,10.477-1.447,15.905-2.273a1.247,1.247,0,0,0,.18.234l3.632,3.687a1.245,1.245,0,1,0,1.774-1.748Zm-18.938-1.189a3.915,3.915,0,1,1,3.915-3.915A3.915,3.915,0,0,1,38.706,269.294Z" transform="translate(-30.91 -257.584)"/>
    </g>
  </g>
  <g id="Group_39" data-name="Group 39" transform="translate(4.574 10.697)">
    <g id="Group_38" data-name="Group 38">
      <path id="Path_103" data-name="Path 103" d="M104.955,155.777a1.245,1.245,0,0,0-1.245-1.245H98.226a1.245,1.245,0,1,0,0,2.491h2.03l.987,2.38c.5.072,1.279.187,2.52.37l.256.038-1.156-2.789h.846A1.246,1.246,0,0,0,104.955,155.777Z" transform="translate(-96.981 -154.532)"/>
    </g>
  </g>
</svg>
