<svg xmlns="http://www.w3.org/2000/svg" width="28.388" height="26.852" viewBox="0 0 28.388 26.852">
  <g id="supermarket" transform="translate(0.001)">
    <path id="Path_541" data-name="Path 541" d="M128.951,315.367a2.706,2.706,0,1,0-2.706,2.706A2.707,2.707,0,0,0,128.951,315.367Zm-4.453,0a1.747,1.747,0,1,1,1.747,1.746A1.746,1.746,0,0,1,124.5,315.367Zm0,0" transform="translate(-115.068 -291.221)" fill="#fff"/>
    <path id="Path_542" data-name="Path 542" d="M272.406,318.073a2.706,2.706,0,1,0-2.706-2.706A2.706,2.706,0,0,0,272.406,318.073Zm0-4.453a1.747,1.747,0,1,1-1.746,1.747A1.747,1.747,0,0,1,272.406,313.62Zm0,0" transform="translate(-251.207 -291.221)" fill="#fff"/>
    <path id="Path_543" data-name="Path 543" d="M.479.96H3.407A1.947,1.947,0,0,1,5.339,2.61l2.318,14.64a2.9,2.9,0,0,0,2.88,2.46H24.863a.48.48,0,0,0,0-.96H10.537A1.947,1.947,0,0,1,8.6,17.1l-.394-2.489H22.883a2.917,2.917,0,0,0,2.755-1.961l2.722-7.857a.48.48,0,0,0-.453-.637H6.555l-.268-1.7A2.9,2.9,0,0,0,3.407,0H.479a.48.48,0,0,0,0,.96ZM27.233,5.116l-2.5,7.219a1.957,1.957,0,0,1-1.848,1.315H8.059L6.707,5.116Zm0,0" transform="translate(0 0)" fill="#fff"/>
  </g>
</svg>
