<svg xmlns="http://www.w3.org/2000/svg" width="39.301" height="29.475" viewBox="0 0 39.301 29.475">
  <path id="email_1_" data-name="email (1)" d="M35.616,59.882H3.684A3.688,3.688,0,0,0,0,63.566V85.673a3.688,3.688,0,0,0,3.684,3.684H35.616A3.688,3.688,0,0,0,39.3,85.673V63.566A3.688,3.688,0,0,0,35.616,59.882Zm0,2.456a1.221,1.221,0,0,1,.471.1L19.65,76.679,3.214,62.433a1.223,1.223,0,0,1,.471-.1Zm0,24.563H3.684a1.229,1.229,0,0,1-1.228-1.228V65.028l16.389,14.2a1.23,1.23,0,0,0,1.61,0l16.389-14.2V85.673A1.229,1.229,0,0,1,35.616,86.9Z" transform="translate(0 -59.882)" fill="#6d6d6d"/>
</svg>
