<svg xmlns="http://www.w3.org/2000/svg" xmlns:xlink="http://www.w3.org/1999/xlink" width="168.813" height="160.712" viewBox="0 0 168.813 160.712">
  <defs>
    <linearGradient id="linear-gradient" x1="0.509" y1="0.997" x2="0.509" y2="-0.003" gradientUnits="objectBoundingBox">
      <stop offset="0" stop-color="gray" stop-opacity="0.251"/>
      <stop offset="0.54" stop-color="gray" stop-opacity="0.122"/>
      <stop offset="1" stop-color="gray" stop-opacity="0.102"/>
    </linearGradient>
    <linearGradient id="linear-gradient-2" x1="0.813" y1="0.841" x2="0.813" y2="-0.159" xlink:href="#linear-gradient"/>
    <linearGradient id="linear-gradient-3" x1="1.78" y1="0.849" x2="1.78" y2="-0.151" xlink:href="#linear-gradient"/>
    <linearGradient id="linear-gradient-4" x1="0.5" y1="1" x2="0.5" y2="0" xlink:href="#linear-gradient"/>
    <linearGradient id="linear-gradient-6" x1="0.5" y1="0.999" x2="0.5" y2="-0.001" xlink:href="#linear-gradient"/>
  </defs>
  <g id="Group_365" data-name="Group 365" transform="translate(-79 -366.171)">
    <g id="Group_271" data-name="Group 271" transform="translate(79 366.171)">
      <rect id="Rectangle_810" data-name="Rectangle 810" width="89.951" height="124.283" transform="matrix(0.978, -0.21, 0.21, 0.978, 14.227, 27.888)" fill="#2c2c2c"/>
      <g id="Group_267" data-name="Group 267" transform="translate(16.155 11.39)" opacity="0.5">
        <rect id="Rectangle_811" data-name="Rectangle 811" width="86.911" height="120.082" transform="matrix(0.978, -0.21, 0.21, 0.978, 0, 18.233)" fill="url(#linear-gradient)"/>
      </g>
      <path id="Path_560" data-name="Path 560" d="M0,0H84.7V117.429H0Z" transform="matrix(0.978, -0.21, 0.21, 0.978, 17.421, 30.255)" fill="#e6e6e6"/>
      <rect id="Rectangle_813" data-name="Rectangle 813" width="42.018" height="10.178" transform="matrix(0.978, -0.21, 0.21, 0.978, 37.327, 20.778)" fill="url(#linear-gradient-2)"/>
      <path id="Path_544" data-name="Path 544" d="M443.106,91.4a6.014,6.014,0,1,0,7,4.648A5.944,5.944,0,0,0,443.106,91.4Zm1.99,9.283a3.47,3.47,0,1,1,2.585-4.117,3.429,3.429,0,0,1-2.585,4.117Z" transform="translate(-387.325 -84.752)" fill="url(#linear-gradient-3)"/>
      <rect id="Rectangle_814" data-name="Rectangle 814" width="41.133" height="9.729" transform="matrix(0.978, -0.21, 0.21, 0.978, 37.668, 20.258)" fill="#1a201c"/>
      <path id="Path_545" data-name="Path 545" d="M443.4,91.4a5.749,5.749,0,1,0,6.827,4.415A5.749,5.749,0,0,0,443.4,91.4Zm1.9,8.871a3.318,3.318,0,1,1,2.548-3.94,3.318,3.318,0,0,1-2.548,3.94Z" transform="translate(-387.618 -84.751)" fill="#1a201c"/>
      <rect id="Rectangle_815" data-name="Rectangle 815" width="89.951" height="124.283" transform="translate(53.081 24.063)" fill="#2c2c2c"/>
      <g id="Group_268" data-name="Group 268" transform="translate(54.602 26.165)" opacity="0.5">
        <rect id="Rectangle_816" data-name="Rectangle 816" width="86.911" height="120.082" fill="url(#linear-gradient-4)"/>
      </g>
      <path id="Path_561" data-name="Path 561" d="M0,0H84.7V117.429H0Z" transform="translate(55.707 27.05)" fill="#e6e6e6"/>
      <rect id="Rectangle_818" data-name="Rectangle 818" width="42.018" height="10.178" transform="translate(77.158 21.958)" fill="url(#linear-gradient-4)"/>
      <path id="Path_546" data-name="Path 546" d="M644.194,118a6.016,6.016,0,1,0,5.874,6.014A5.946,5.946,0,0,0,644.194,118Zm0,9.485a3.47,3.47,0,1,1,3.388-3.47,3.429,3.429,0,0,1-3.388,3.454Z" transform="translate(-546.027 -105.978)" fill="url(#linear-gradient-6)"/>
      <rect id="Rectangle_819" data-name="Rectangle 819" width="41.133" height="9.729" transform="translate(77.601 21.521)" fill="#1a201c"/>
      <path id="Path_547" data-name="Path 547" d="M644.679,118a5.749,5.749,0,1,0,5.749,5.749A5.749,5.749,0,0,0,644.679,118Zm0,9.067a3.361,3.361,0,1,0,0-.01Z" transform="translate(-546.512 -105.978)" fill="#1a201c"/>
      <g id="Group_269" data-name="Group 269" transform="translate(1.336 151.705)" opacity="0.5">
        <rect id="Rectangle_820" data-name="Rectangle 820" width="0.774" height="4.39" transform="translate(1.807)" fill="#47e6b1"/>
        <rect id="Rectangle_821" data-name="Rectangle 821" width="0.774" height="4.39" transform="translate(4.39 1.809) rotate(90)" fill="#47e6b1"/>
      </g>
      <g id="Group_270" data-name="Group 270" transform="translate(91.122)" opacity="0.5">
        <rect id="Rectangle_822" data-name="Rectangle 822" width="0.774" height="4.39" transform="translate(1.807)" fill="#47e6b1"/>
        <rect id="Rectangle_823" data-name="Rectangle 823" width="0.774" height="4.39" transform="translate(4.39 1.807) rotate(90)" fill="#47e6b1"/>
      </g>
      <path id="Path_548" data-name="Path 548" d="M948.762,825.376a.949.949,0,0,1-.529-1.147.458.458,0,0,0,.021-.1h0a.476.476,0,0,0-.854-.315h0a.467.467,0,0,0-.054.093.949.949,0,0,1-1.146.529.453.453,0,0,0-.1-.021h0a.476.476,0,0,0-.315.854h0a.456.456,0,0,0,.093.054.949.949,0,0,1,.529,1.146.454.454,0,0,0-.021.105h0a.475.475,0,0,0,.854.315h0a.453.453,0,0,0,.053-.093.949.949,0,0,1,1.146-.529.456.456,0,0,0,.105.021h0a.475.475,0,0,0,.315-.854h0A.46.46,0,0,0,948.762,825.376Z" transform="translate(-790.053 -666.363)" fill="#4d8af0" opacity="0.5"/>
      <path id="Path_549" data-name="Path 549" d="M314.352,620.316a.949.949,0,0,1-.529-1.146.453.453,0,0,0,.021-.1h0a.475.475,0,0,0-.854-.315h0a.458.458,0,0,0-.053.093.949.949,0,0,1-1.146.529.455.455,0,0,0-.1-.021h0a.475.475,0,0,0-.315.854h0a.459.459,0,0,0,.093.054.949.949,0,0,1,.529,1.146.455.455,0,0,0-.021.1h0a.475.475,0,0,0,.854.315h0a.458.458,0,0,0,.054-.093.949.949,0,0,1,1.146-.529.456.456,0,0,0,.105.021h0a.475.475,0,0,0,.315-.854h0a.455.455,0,0,0-.093-.053Z" transform="translate(-286.222 -503.509)" fill="#fdd835" opacity="0.5"/>
      <path id="Path_550" data-name="Path 550" d="M842.762,121a.949.949,0,0,1-.529-1.146.459.459,0,0,0,.021-.1h0a.476.476,0,0,0-.854-.315h0a.465.465,0,0,0-.054.093.949.949,0,0,1-1.146.529.458.458,0,0,0-.1-.021h0a.475.475,0,0,0-.315.854h0a.457.457,0,0,0,.093.054.949.949,0,0,1,.529,1.146.449.449,0,0,0-.021.1h0a.475.475,0,0,0,.854.315h0a.438.438,0,0,0,.054-.093.949.949,0,0,1,1.147-.529.457.457,0,0,0,.105.021h0a.475.475,0,0,0,.315-.854h0A.459.459,0,0,0,842.762,121Z" transform="translate(-705.871 -106.963)" fill="#fdd835" opacity="0.5"/>
      <circle id="Ellipse_78" data-name="Ellipse 78" cx="1.55" cy="1.55" r="1.55" transform="translate(165.714 63.177)" fill="#f55f44" opacity="0.5"/>
      <circle id="Ellipse_79" data-name="Ellipse 79" cx="1.55" cy="1.55" r="1.55" transform="translate(45.941 152.131)" fill="#f55f44" opacity="0.5"/>
      <circle id="Ellipse_80" data-name="Ellipse 80" cx="1.55" cy="1.55" r="1.55" transform="translate(149.797 96.677)" fill="#f55f44" opacity="0.5"/>
      <circle id="Ellipse_81" data-name="Ellipse 81" cx="1.55" cy="1.55" r="1.55" transform="translate(16.386 18.282)" fill="#4d8af0" opacity="0.5"/>
      <circle id="Ellipse_82" data-name="Ellipse 82" cx="1.55" cy="1.55" r="1.55" transform="translate(0 60.561)" fill="#47e6b1" opacity="0.5"/>
    </g>
    <path id="Path_562" data-name="Path 562" d="M13742.991-4973.8l85.538-117.615V-4973.8Z" transform="translate(-13608.889 5484.653)" fill="#eee"/>
  </g>
</svg>
