<svg id="headphones" xmlns="http://www.w3.org/2000/svg" width="26.756" height="28.448" viewBox="0 0 26.756 28.448">
  <path id="Path_538" data-name="Path 538" d="M37.261,10.817V9.724a9.991,9.991,0,0,0-2.606-6.855A8.988,8.988,0,0,0,27.985,0h-.9a8.988,8.988,0,0,0-6.67,2.869,9.991,9.991,0,0,0-2.606,6.855v1.094a3.925,3.925,0,0,0-3.658,3.909v1.709a3.92,3.92,0,0,0,3.915,3.915H20.27a.719.719,0,0,0,.717-.717v-8.11a.719.719,0,0,0-.717-.717H19.242V9.724c0-4.727,3.371-8.289,7.835-8.289h.9c4.47,0,7.835,3.562,7.835,8.289v1.082H34.787a.719.719,0,0,0-.717.717v8.1a.719.719,0,0,0,.717.717h1c-.293,3.741-2.869,4.608-4.064,4.805a2.522,2.522,0,0,0-2.4-1.739H27.537a2.519,2.519,0,0,0,0,5.038h1.8A2.522,2.522,0,0,0,31.763,26.6a6.784,6.784,0,0,0,2.432-.831,6.331,6.331,0,0,0,3.036-5.427,3.919,3.919,0,0,0,3.676-3.909V14.72A3.9,3.9,0,0,0,37.261,10.817Zm-17.7,8.092H18.077a2.482,2.482,0,0,1-2.48-2.48V14.72a2.482,2.482,0,0,1,2.48-2.48h1.488Zm9.772,8.1h-1.8a1.082,1.082,0,0,1,0-2.163h1.8a1.082,1.082,0,1,1,0,2.163ZM39.478,16.429A2.482,2.482,0,0,1,37,18.91H35.51V12.24H37a2.482,2.482,0,0,1,2.48,2.48Z" transform="translate(-14.15)"/>
</svg>
