<svg xmlns="http://www.w3.org/2000/svg" width="26.579" height="26.582" viewBox="0 0 26.579 26.582">
  <path id="home-run_1_" data-name="home-run (1)" d="M26.365,11.561l0,0L15.52.716a2.447,2.447,0,0,0-3.461,0L1.221,11.554l-.011.011a2.446,2.446,0,0,0,1.628,4.169c.025,0,.05,0,.076,0h.432v7.98a2.867,2.867,0,0,0,2.864,2.864h4.242a.779.779,0,0,0,.779-.779V19.547a1.308,1.308,0,0,1,1.307-1.307h2.5a1.308,1.308,0,0,1,1.307,1.307V25.8a.779.779,0,0,0,.779.779h4.242a2.867,2.867,0,0,0,2.864-2.864v-7.98h.4a2.448,2.448,0,0,0,1.732-4.177Zm-1.1,2.358a.884.884,0,0,1-.629.261h-1.18a.779.779,0,0,0-.779.779v8.758a1.308,1.308,0,0,1-1.307,1.306H17.9V19.547a2.867,2.867,0,0,0-2.864-2.864h-2.5a2.868,2.868,0,0,0-2.864,2.864v5.477H6.211A1.308,1.308,0,0,1,4.9,23.718V14.959a.779.779,0,0,0-.779-.779H2.966l-.037,0a.889.889,0,0,1-.613-1.518h0L13.161,1.818a.889.889,0,0,1,1.258,0l10.841,10.84.005,0a.892.892,0,0,1,0,1.257Zm0,0" transform="translate(-0.5 0.001)"/>
</svg>
