<svg xmlns="http://www.w3.org/2000/svg" width="32.231" height="32.236" viewBox="0 0 32.231 32.236">
  <path id="home_1_" data-name="home (1)" d="M31.366,14.02l0,0L18.214.869a2.967,2.967,0,0,0-4.2,0L.875,14.011l-.013.014a2.966,2.966,0,0,0,1.975,5.056q.045,0,.091,0h.524v9.677a3.477,3.477,0,0,0,3.473,3.473H12.07a.944.944,0,0,0,.944-.944V23.7A1.586,1.586,0,0,1,14.6,22.119h3.034A1.586,1.586,0,0,1,19.218,23.7V31.29a.944.944,0,0,0,.944.944h5.144a3.477,3.477,0,0,0,3.473-3.473V19.085h.486a2.968,2.968,0,0,0,2.1-5.065Zm0,0" transform="translate(0 0.001)" fill="#171515"/>
</svg>
