<svg xmlns="http://www.w3.org/2000/svg" width="232" height="82" viewBox="0 0 232 82">
  <path id="Exclusion_4" data-name="Exclusion 4" d="M-748.69-2921a34.92,34.92,0,0,1-13.726-2.782,35.14,35.14,0,0,1-11.209-7.589,35.3,35.3,0,0,1-7.557-11.255,35.315,35.315,0,0,1-2.771-13.783h70.528a35.244,35.244,0,0,0-10.34-25.027,34.951,34.951,0,0,0-24.924-10.383,35.377,35.377,0,0,0-35.264,35.41H-865V-3003h232v46.592h-80.427a35.314,35.314,0,0,1-2.771,13.783,35.3,35.3,0,0,1-7.557,11.255,35.14,35.14,0,0,1-11.209,7.589A34.92,34.92,0,0,1-748.69-2921Z" transform="translate(865 3003)" fill="#171515"/>
</svg>
