<svg id="cardio" xmlns="http://www.w3.org/2000/svg" width="33.244" height="37.177" viewBox="0 0 33.244 37.177">
  <g id="Group_41" data-name="Group 41" transform="translate(0 0)">
    <g id="Group_40" data-name="Group 40">
      <path id="Path_104" data-name="Path 104" d="M60.322,27.4a5.142,5.142,0,0,0-3.5-4.944c-.016-.1-3.2-15-3.226-15.142l5.547-2.1a1.237,1.237,0,0,0,.769-1.424L59.287.97a1.237,1.237,0,1,0-2.415.534l.392,1.774-5.539,2.1a1.237,1.237,0,0,0-.771,1.414l3.209,15.049c-3.2-.488-9.286-1.411-13.685-2.042l-2.425-5.847h1.054a1.237,1.237,0,0,0,0-2.474H33.223a1.237,1.237,0,0,0,0,2.474h2.241l2.265,5.461c-1.276-.173-2.155-.279-2.385-.279A8.264,8.264,0,0,0,30.369,34L29.3,35.065a1.237,1.237,0,0,0,1.749,1.749l1.6-1.6a8.231,8.231,0,0,0,2.695.451c.925,0,11.932-1.658,17.622-2.524l3.609,3.664a1.237,1.237,0,1,0,1.762-1.736l-2.373-2.409A5.9,5.9,0,0,0,58.9,31.108,5.151,5.151,0,0,0,60.322,27.4ZM54.7,30.377c-6.991,1.071-18.416,2.78-19.365,2.818a5.793,5.793,0,0,1,0-11.586c.946.04,12.361,1.747,19.356,2.816,1.443.245,3.157.96,3.157,2.976C57.849,29.365,56.626,30.083,54.7,30.377Z" transform="translate(-27.078 0)"/>
    </g>
  </g>
  <g id="Group_43" data-name="Group 43" transform="translate(4.415 23.55)">
    <g id="Group_42" data-name="Group 42">
      <path id="Path_105" data-name="Path 105" d="M91.731,324.333a3.852,3.852,0,1,0,3.852,3.852A3.852,3.852,0,0,0,91.731,324.333Zm0,5.23a1.378,1.378,0,1,1,1.378-1.378A1.38,1.38,0,0,1,91.731,329.563Z" transform="translate(-87.879 -324.333)"/>
    </g>
  </g>
</svg>
