<svg xmlns="http://www.w3.org/2000/svg" width="29.843" height="33.954" viewBox="0 0 29.843 33.954">
  <path id="trainer" d="M53.879,17.972H49.9V16.72a6.96,6.96,0,0,0,2.984-5.711V4.974A4.979,4.979,0,0,0,47.911,0H43.932a4.979,4.979,0,0,0-4.974,4.974v6.035a6.96,6.96,0,0,0,2.984,5.711v1.252H37.963A6.971,6.971,0,0,0,31,24.935V32.96a.995.995,0,1,0,1.99,0V29.909h3.979V32.96a.995.995,0,1,0,1.99,0V28.914a1,1,0,0,0-.995-.995H32.99V24.935a4.979,4.979,0,0,1,4.974-4.974h4.153a3,3,0,0,0,2.81,1.989v2.161a2.984,2.984,0,1,0,1.99,5.626V30.9a.995.995,0,1,0,1.99,0V26.925a2.989,2.989,0,0,0-1.99-2.813V21.951a3,3,0,0,0,2.81-1.989h4.153a4.979,4.979,0,0,1,4.974,4.974v2.984H53.879a1,1,0,0,0-.995.995V32.96a.995.995,0,1,0,1.99,0V29.909h3.979V32.96a.995.995,0,1,0,1.99,0V24.935A6.971,6.971,0,0,0,53.879,17.972ZM43.932,1.99h3.979A2.988,2.988,0,0,1,50.9,4.974V6.035H40.948V4.974A2.988,2.988,0,0,1,43.932,1.99Zm5.686,6.035L48.47,9.837a10.111,10.111,0,0,0-5.1,0L42.224,8.024Zm-8.671,2.984V9.726L42.1,11.541a1,1,0,0,0,1.155.411,8.1,8.1,0,0,1,5.34,0,1,1,0,0,0,1.155-.411L50.9,9.726v1.282a4.974,4.974,0,1,1-9.948,0Zm4.974,16.911a.995.995,0,1,1,.995-.995A1,1,0,0,1,45.921,27.919Zm.984-7.958H44.938a1.007,1.007,0,0,1-1.006-1.006V17.682a6.965,6.965,0,0,0,3.979,0v1.274A1.007,1.007,0,0,1,46.9,19.961Z" transform="translate(-31)"/>
</svg>
