<svg id="invoice" xmlns="http://www.w3.org/2000/svg" width="26.363" height="27.217" viewBox="0 0 26.363 27.217">
  <g id="Group_234" data-name="Group 234" transform="translate(0)">
    <path id="Path_525" data-name="Path 525" d="M33.016,0H8.047a.7.7,0,0,0,0,1.394h1.5V26.5a.7.7,0,0,0,.366.616.688.688,0,0,0,.714-.035l3.025-2.015,3.037,2.021a.693.693,0,0,0,.772,0l3.025-2.015,3.037,2.021a.693.693,0,0,0,.772,0l3.025-2.015L30.363,27.1a.706.706,0,0,0,.383.116.752.752,0,0,0,.331-.081.7.7,0,0,0,.366-.616L31.431,1.411h1.585a.7.7,0,0,0,.7-.7A.714.714,0,0,0,33.016,0ZM30.055,25.2l-2.34-1.556a.693.693,0,0,0-.772,0l-3.025,2.021L20.88,23.646a.693.693,0,0,0-.772,0L17.082,25.66l-3.037-2.015a.693.693,0,0,0-.772,0L10.944,25.2V1.388h19.1Z" transform="translate(-7.35)"/>
    <path id="Path_526" data-name="Path 526" d="M113.147,168.994h7.3a.7.7,0,1,0,0-1.394h-7.3a.7.7,0,1,0,0,1.394Z" transform="translate(-106.347 -157.868)"/>
    <path id="Path_527" data-name="Path 527" d="M113.147,210.694h5.47a.7.7,0,0,0,0-1.394h-5.47a.7.7,0,0,0,0,1.394Z" transform="translate(-106.347 -197.146)"/>
    <path id="Path_528" data-name="Path 528" d="M301.647,168.994h1.823a.7.7,0,0,0,0-1.394h-1.823a.7.7,0,0,0,0,1.394Z" transform="translate(-283.901 -157.868)"/>
    <path id="Path_529" data-name="Path 529" d="M301.647,210.694h1.823a.7.7,0,0,0,0-1.394h-1.823a.7.7,0,0,0,0,1.394Z" transform="translate(-283.901 -197.146)"/>
    <path id="Path_530" data-name="Path 530" d="M113.147,72.694h7.3a.7.7,0,0,0,0-1.394h-7.3a.7.7,0,1,0,0,1.394Z" transform="translate(-106.347 -67.16)"/>
    <path id="Path_531" data-name="Path 531" d="M113.147,114.294h5.47a.7.7,0,0,0,0-1.394h-5.47a.7.7,0,0,0,0,1.394Z" transform="translate(-106.347 -106.344)"/>
    <path id="Path_532" data-name="Path 532" d="M301.647,72.694h1.823a.7.7,0,0,0,0-1.394h-1.823a.7.7,0,0,0,0,1.394Z" transform="translate(-283.901 -67.16)"/>
    <path id="Path_533" data-name="Path 533" d="M301.647,114.294h1.823a.7.7,0,0,0,0-1.394h-1.823a.7.7,0,0,0,0,1.394Z" transform="translate(-283.901 -106.344)"/>
    <path id="Path_534" data-name="Path 534" d="M113.147,266.494h7.3a.7.7,0,1,0,0-1.394h-7.3a.7.7,0,1,0,0,1.394Z" transform="translate(-106.347 -249.706)"/>
    <path id="Path_535" data-name="Path 535" d="M113.147,308.094h5.47a.7.7,0,1,0,0-1.394h-5.47a.7.7,0,1,0,0,1.394Z" transform="translate(-106.347 -288.89)"/>
    <path id="Path_536" data-name="Path 536" d="M301.647,266.494h1.823a.7.7,0,0,0,0-1.394h-1.823a.7.7,0,0,0,0,1.394Z" transform="translate(-283.901 -249.706)"/>
    <path id="Path_537" data-name="Path 537" d="M301.647,308.094h1.823a.7.7,0,0,0,0-1.394h-1.823a.7.7,0,0,0,0,1.394Z" transform="translate(-283.901 -288.89)"/>
  </g>
</svg>
