<svg id="lock" xmlns="http://www.w3.org/2000/svg" width="31.521" height="40.179" viewBox="0 0 31.521 40.179">
  <g id="Group_5" data-name="Group 5" transform="translate(0)">
    <g id="Group_4" data-name="Group 4">
      <path id="Path_2" data-name="Path 2" d="M79.63,16.49H78.449v-6.6a9.889,9.889,0,1,0-19.778,0v6.6H57.49a4.7,4.7,0,0,0-4.69,4.69V35.489a4.7,4.7,0,0,0,4.69,4.69H79.63a4.7,4.7,0,0,0,4.69-4.69V21.18A4.7,4.7,0,0,0,79.63,16.49Zm-18.146-6.6a7.076,7.076,0,1,1,14.153,0v6.6H61.484ZM81.5,35.481a1.883,1.883,0,0,1-1.878,1.878H57.49a1.883,1.883,0,0,1-1.878-1.878V21.18A1.883,1.883,0,0,1,57.49,19.3H79.63a1.883,1.883,0,0,1,1.878,1.878v14.3Z" transform="translate(-52.8)" fill="#5e5e5e"/>
      <path id="Path_3" data-name="Path 3" d="M228.655,307.2a.756.756,0,0,0-.755.76v1.957a.757.757,0,0,0,1.515,0V307.96A.762.762,0,0,0,228.655,307.2Z" transform="translate(-212.893 -279.79)" fill="#5e5e5e"/>
    </g>
  </g>
</svg>
