<svg id="new_2_" data-name="new (2)" xmlns="http://www.w3.org/2000/svg" width="29.475" height="29.474" viewBox="0 0 29.475 29.474">
  <g id="Group_233" data-name="Group 233">
    <g id="Group_232" data-name="Group 232">
      <path id="Path_504" data-name="Path 504" d="M28.082,12.615a3.375,3.375,0,0,1-1.005-1.182,3.463,3.463,0,0,1,.281-1.591A3.115,3.115,0,0,0,27.5,7.369a3.146,3.146,0,0,0-2.237-1.122,3.418,3.418,0,0,1-1.5-.54,3.418,3.418,0,0,1-.537-1.495,3.141,3.141,0,0,0-1.123-2.238,3.115,3.115,0,0,0-2.473.142,3.471,3.471,0,0,1-1.592.281,3.377,3.377,0,0,1-1.182-1.005C16.242.707,15.6,0,14.737,0s-1.505.707-2.122,1.392A3.375,3.375,0,0,1,11.433,2.4a3.472,3.472,0,0,1-1.591-.281,3.114,3.114,0,0,0-2.473-.142A3.146,3.146,0,0,0,6.246,4.21a3.418,3.418,0,0,1-.54,1.5,3.418,3.418,0,0,1-1.495.537A3.141,3.141,0,0,0,1.973,7.366a3.115,3.115,0,0,0,.142,2.473A3.461,3.461,0,0,1,2.4,11.431a3.377,3.377,0,0,1-1.005,1.182C.707,13.232,0,13.872,0,14.737s.707,1.505,1.392,2.125A3.374,3.374,0,0,1,2.4,18.044a3.463,3.463,0,0,1-.281,1.591,3.115,3.115,0,0,0-.142,2.473A3.146,3.146,0,0,0,4.21,23.231a3.418,3.418,0,0,1,1.5.538,3.418,3.418,0,0,1,.537,1.495A3.141,3.141,0,0,0,7.366,27.5a3.115,3.115,0,0,0,2.473-.142,3.471,3.471,0,0,1,1.592-.281,3.377,3.377,0,0,1,1.182,1.005c.619.685,1.26,1.392,2.125,1.392s1.505-.707,2.125-1.392a3.375,3.375,0,0,1,1.182-1.005,3.472,3.472,0,0,1,1.591.281,3.112,3.112,0,0,0,2.473.142,3.146,3.146,0,0,0,1.122-2.237,3.418,3.418,0,0,1,.538-1.5,3.418,3.418,0,0,1,1.495-.537A3.141,3.141,0,0,0,27.5,22.108a3.115,3.115,0,0,0-.142-2.473,3.461,3.461,0,0,1-.281-1.592,3.377,3.377,0,0,1,1.005-1.182c.685-.619,1.392-1.26,1.392-2.125S28.767,13.232,28.082,12.615Zm-.659,3.519a3.88,3.88,0,0,0-1.295,1.656,3.992,3.992,0,0,0,.295,2.144c.21.658.425,1.338.228,1.682s-.912.507-1.6.655a3.937,3.937,0,0,0-1.982.8,3.943,3.943,0,0,0-.8,1.983c-.147.682-.3,1.389-.654,1.594s-1.025-.018-1.682-.228a4,4,0,0,0-2.143-.295,3.877,3.877,0,0,0-1.657,1.295c-.476.526-.968,1.069-1.4,1.069s-.921-.543-1.4-1.069a3.88,3.88,0,0,0-1.656-1.295,1.939,1.939,0,0,0-.5-.062h0a5.67,5.67,0,0,0-1.646.355c-.659.21-1.338.425-1.682.228s-.507-.912-.655-1.6a3.937,3.937,0,0,0-.8-1.982,3.943,3.943,0,0,0-1.983-.8c-.682-.147-1.389-.3-1.594-.654s.018-1.023.228-1.681a3.991,3.991,0,0,0,.295-2.143,3.877,3.877,0,0,0-1.295-1.657c-.526-.476-1.069-.968-1.069-1.4s.543-.921,1.071-1.4a3.88,3.88,0,0,0,1.295-1.656A3.992,3.992,0,0,0,3.054,9.54c-.21-.658-.425-1.338-.228-1.682s.912-.507,1.6-.655A3.937,3.937,0,0,0,6.4,6.4a3.943,3.943,0,0,0,.8-1.983c.147-.682.3-1.389.654-1.594s1.023.018,1.681.228a3.989,3.989,0,0,0,2.143.295A3.877,3.877,0,0,0,13.34,2.051c.476-.526.968-1.069,1.4-1.069s.921.543,1.4,1.069A3.88,3.88,0,0,0,17.79,3.346a4,4,0,0,0,2.144-.295c.659-.21,1.338-.425,1.682-.228s.507.912.655,1.6a3.937,3.937,0,0,0,.8,1.982,3.943,3.943,0,0,0,1.983.8c.682.147,1.389.3,1.594.654s-.018,1.025-.228,1.682a3.991,3.991,0,0,0-.295,2.143,3.877,3.877,0,0,0,1.295,1.657c.526.476,1.069.968,1.069,1.4S27.948,15.658,27.423,16.134Z"/>
      <path id="Path_505" data-name="Path 505" d="M232.491,65.965a.491.491,0,0,0,.491-.491v-.982a.491.491,0,1,0-.982,0v.982A.491.491,0,0,0,232.491,65.965Z" transform="translate(-217.754 -60.07)"/>
      <path id="Path_506" data-name="Path 506" d="M188.74,71.1a.491.491,0,0,0,.474.364.478.478,0,0,0,.128-.017.491.491,0,0,0,.347-.6l-.254-.949-.007-.026a.491.491,0,0,0-.942.28Z" transform="translate(-176.893 -65.249)"/>
      <path id="Path_507" data-name="Path 507" d="M148.883,86.7l0-.006a.491.491,0,1,0-.848.5l.491.851a.491.491,0,0,0,.851-.491Z" transform="translate(-138.879 -81.148)"/>
      <path id="Path_508" data-name="Path 508" d="M113.947,114.641a.491.491,0,1,0,.695-.695l-.7-.7-.012-.012a.491.491,0,1,0-.683.707Z" transform="translate(-106.157 -106.157)"/>
      <path id="Path_509" data-name="Path 509" d="M114.041,339.716l-.7.7a.491.491,0,1,0,.695.695l.7-.7a.491.491,0,0,0-.695-.695Z" transform="translate(-106.251 -318.726)"/>
      <path id="Path_510" data-name="Path 510" d="M149.237,363.744a.491.491,0,0,0-.672.175l-.491.851a.491.491,0,1,0,.851.491l.491-.851A.491.491,0,0,0,149.237,363.744Z" transform="translate(-138.92 -341.345)"/>
      <path id="Path_511" data-name="Path 511" d="M189.393,378.872a.491.491,0,0,0-.6.345l-.254.949a.491.491,0,1,0,.949.254l.254-.949A.491.491,0,0,0,189.393,378.872Z" transform="translate(-176.943 -355.592)"/>
      <path id="Path_512" data-name="Path 512" d="M232.491,384a.491.491,0,0,0-.491.491v.982a.491.491,0,0,0,.982,0v-.982A.491.491,0,0,0,232.491,384Z" transform="translate(-217.754 -360.421)"/>
      <path id="Path_513" data-name="Path 513" d="M272.317,379.217a.491.491,0,0,0-.949.254l.254.949a.491.491,0,1,0,.949-.254Z" transform="translate(-254.69 -355.592)"/>
      <path id="Path_514" data-name="Path 514" d="M283.48,410.272Z" transform="translate(-266.073 -385.079)"/>
      <path id="Path_515" data-name="Path 515" d="M308.882,363.833l0-.006a.491.491,0,0,0-.848.5l.491.851a.491.491,0,1,0,.851-.491Z" transform="translate(-289.053 -341.259)"/>
      <path id="Path_516" data-name="Path 516" d="M340.41,339.716a.491.491,0,0,0-.695.695l.7.7a.491.491,0,0,0,.695-.695Z" transform="translate(-318.726 -318.726)"/>
      <path id="Path_517" data-name="Path 517" d="M339.973,114.786h0a.491.491,0,0,0,.347-.144l.7-.7.012-.012a.491.491,0,1,0-.707-.683l-.7.7a.491.491,0,0,0,.347.839Z" transform="translate(-318.636 -106.157)"/>
      <path id="Path_518" data-name="Path 518" d="M308.5,88.294a.491.491,0,0,0,.426-.246l.491-.851,0-.006a.491.491,0,1,0-.854-.485l-.491.851a.491.491,0,0,0,.425.737Z" transform="translate(-289.095 -81.148)"/>
      <path id="Path_519" data-name="Path 519" d="M271.707,71.445a.478.478,0,0,0,.128.017h0a.491.491,0,0,0,.474-.364l.254-.949.007-.026a.491.491,0,0,0-.955-.229l-.254.949A.491.491,0,0,0,271.707,71.445Z" transform="translate(-254.681 -65.249)"/>
      <path id="Path_520" data-name="Path 520" d="M196.421,182.877h-3.439v-2.456h2.456a.491.491,0,1,0,0-.982h-2.456v-2.456h3.439a.491.491,0,0,0,0-.982h-3.93a.491.491,0,0,0-.491.491v6.877a.491.491,0,0,0,.491.491h3.93a.491.491,0,1,0,0-.982Z" transform="translate(-180.21 -165.193)"/>
      <path id="Path_521" data-name="Path 521" d="M77.045,183.675a.479.479,0,0,0,.12.1.5.5,0,0,0,.049.032.481.481,0,0,0,.2.049.491.491,0,0,0,.171-.034.551.551,0,0,0,.054-.027.5.5,0,0,0,.06-.03c.011-.007.016-.019.026-.028a.461.461,0,0,0,.07-.075.386.386,0,0,0,.082-.161.5.5,0,0,0,.02-.1c0-.014.008-.026.008-.039v-6.876a.491.491,0,0,0-.491-.491h0a.491.491,0,0,0-.491.491v5.345l-4.022-5.63c-.007-.011-.019-.016-.028-.026a.461.461,0,0,0-.075-.07.493.493,0,0,0-.074-.049.507.507,0,0,0-.085-.032.45.45,0,0,0-.1-.02c-.013,0-.025-.008-.038-.008a.417.417,0,0,0-.049.01.462.462,0,0,0-.1.019.5.5,0,0,0-.092.041l-.046.021c-.011.007-.016.019-.026.028a.46.46,0,0,0-.07.075.48.48,0,0,0-.049.074.471.471,0,0,0-.032.087.5.5,0,0,0-.02.1c0,.014-.008.026-.008.039v6.875a.491.491,0,0,0,.982,0v-5.345l4.022,5.63C77.027,183.663,77.037,183.667,77.045,183.675Z" transform="translate(-67.594 -165.193)"/>
      <path id="Path_522" data-name="Path 522" d="M287.469,176.007h0a.491.491,0,0,0-.584.377h0l-1.1,5.118-1.4-4.187a.491.491,0,0,0-.933,0l-1.394,4.187-1.1-5.118a.491.491,0,0,0-.961.206l1.474,6.877a.49.49,0,0,0,.944.052l1.5-4.5,1.5,4.5a.491.491,0,0,0,.466.336h.028a.491.491,0,0,0,.453-.387l1.474-6.877A.491.491,0,0,0,287.469,176.007Z" transform="translate(-262.803 -165.189)"/>
    </g>
  </g>
</svg>
