<svg xmlns="http://www.w3.org/2000/svg" width="33.08" height="24.311" viewBox="0 0 33.08 24.311">
  <g id="Group_345" data-name="Group 345" transform="translate(-326 -54)">
    <path id="Subtraction_1" data-name="Subtraction 1" d="M-1097.283-1680.688a.8.8,0,0,1-.74-.5l-3.327-8.147h-3.065a4.614,4.614,0,0,1-4.585-4.632v-1.721a4.658,4.658,0,0,1,.64-2.359,3.081,3.081,0,0,0,1.424.35,3.124,3.124,0,0,0,.317-.016,3.019,3.019,0,0,0-.777,2.026v1.721a3,3,0,0,0,2.98,3.011h2.8v-7.743h-2.8c-.088,0-.175,0-.261.011a3.121,3.121,0,0,0,.8-1.633h5.85c2.233,0,5.534-.515,11.285-4.532a.81.81,0,0,1,.462-.145.794.794,0,0,1,.37.091.8.8,0,0,1,.433.715v5.844a3.6,3.6,0,0,1,2.77,3.527,3.6,3.6,0,0,1-2.777,3.527v5.836a.812.812,0,0,1-.55.768.792.792,0,0,1-.248.04.8.8,0,0,1-.643-.331,9.694,9.694,0,0,0-2.69-2.249,16.219,16.219,0,0,0-8.418-2.105h-1.579l3.079,7.531a.813.813,0,0,1-.439,1.058A.843.843,0,0,1-1097.283-1680.688Zm-.753-10.27c5.527,0,9.006,1.929,10.951,3.547v-15.26c-5.409,3.52-8.694,3.971-10.951,3.971h-1.978v7.743Zm12.556-5.692V-1693a1.978,1.978,0,0,0,1.172-1.82,2,2,0,0,0-1.172-1.827Zm7.289,6.637a.748.748,0,0,1-.294-.053l-3.039-1.2a.815.815,0,0,1-.452-1.052.8.8,0,0,1,.746-.514.787.787,0,0,1,.3.057l3.039,1.2a.808.808,0,0,1,.452,1.046A.811.811,0,0,1-1078.191-1690.012Zm.465-4h-3.137a.81.81,0,0,1-.805-.814.811.811,0,0,1,.805-.815h3.137a.8.8,0,0,1,.806.815A.811.811,0,0,1-1077.726-1694.009Zm-3.5-2.819a.811.811,0,0,1-.747-.517.812.812,0,0,1,.452-1.045l3.039-1.205a.788.788,0,0,1,.3-.057.8.8,0,0,1,.746.515.815.815,0,0,1-.452,1.052l-3.039,1.2A.905.905,0,0,1-1081.229-1696.828Z" transform="translate(1436 1759)" fill="#2c2c2c"/>
    <circle id="Ellipse_42" data-name="Ellipse 42" cx="3" cy="3" r="3" transform="translate(326 55)" fill="red"/>
  </g>
</svg>
