<svg xmlns="http://www.w3.org/2000/svg" width="88" height="88" viewBox="0 0 88 88">
  <g id="Group_522" data-name="Group 522" transform="translate(-7021.426 -7654.426)">
    <circle id="Ellipse_278" data-name="Ellipse 278" cx="44" cy="44" r="44" transform="translate(7021.426 7654.426)" fill="#303030"/>
    <path id="Path_20741" data-name="Path 20741" d="M12.726,15.666a7.781,7.781,0,1,1,2.279,5.5A7.781,7.781,0,0,1,12.726,15.666Zm15.219,8.993a11.671,11.671,0,1,0-14.879,0C6.863,26.844,3,31.709,3,37.064a1.945,1.945,0,0,0,3.89,0c0-4.416,4.581-9.726,13.616-9.726s13.616,5.31,13.616,9.726a1.945,1.945,0,0,0,3.89,0C38.014,31.709,34.155,26.844,27.945,24.659Z" transform="translate(7044.544 7676.549)" fill="#fff" fill-rule="evenodd"/>
  </g>
</svg>
