<svg id="speaker_1_" data-name="speaker (1)" xmlns="http://www.w3.org/2000/svg" width="28.938" height="21.706" viewBox="0 0 28.938 21.706">
  <g id="Group_97" data-name="Group 97">
    <path id="Path_185" data-name="Path 185" d="M21.216,67.143V61.926a.71.71,0,0,0-.39-.638.73.73,0,0,0-.75.047c-5.187,3.586-8.165,4.047-10.18,4.047H4.136A4.14,4.14,0,0,0,0,69.518v1.536A4.14,4.14,0,0,0,4.136,75.19H6.9l3,7.273a.723.723,0,0,0,.668.449.771.771,0,0,0,.278-.053.726.726,0,0,0,.4-.945L8.466,75.19H9.89c7.019,0,9.89,3.716,10.02,3.888a.722.722,0,0,0,.579.3.714.714,0,0,0,.225-.035.724.724,0,0,0,.5-.685V73.441a3.233,3.233,0,0,0,.006-6.3ZM1.448,71.055V69.518A2.69,2.69,0,0,1,4.136,66.83H6.664v6.913H4.136A2.69,2.69,0,0,1,1.448,71.055ZM19.769,76.91A15.168,15.168,0,0,0,9.89,73.743H8.106V66.83H9.89c2.068,0,5.034-.425,9.879-3.545Zm1.448-4.992V68.662a1.781,1.781,0,0,1,0,3.255Z" transform="translate(0 -61.206)"/>
    <path id="Path_186" data-name="Path 186" d="M420.857,202.693h-2.83a.727.727,0,0,0,0,1.453h2.83a.727.727,0,0,0,0-1.453Z" transform="translate(-392.645 -194.334)"/>
    <path id="Path_187" data-name="Path 187" d="M411.836,144.087a.727.727,0,0,0,.674.461.841.841,0,0,0,.266-.047l2.741-1.075a.724.724,0,0,0-.532-1.347l-2.741,1.075A.725.725,0,0,0,411.836,144.087Z" transform="translate(-387.458 -137.252)"/>
    <path id="Path_188" data-name="Path 188" d="M415.466,246.154l-2.741-1.075a.724.724,0,0,0-.532,1.347l2.741,1.075a.7.7,0,0,0,.266.047.727.727,0,0,0,.674-.461A.719.719,0,0,0,415.466,246.154Z" transform="translate(-387.408 -234.167)"/>
  </g>
</svg>
