<svg id="strongman" xmlns="http://www.w3.org/2000/svg" width="21" height="21" viewBox="0 0 21 21">
  <path id="Path_93" data-name="Path 93" d="M24.068,7.339a.356.356,0,0,0,.356.356h.712a.356.356,0,0,0,.356-.356V2.356A.356.356,0,0,0,25.136,2h-.712a.356.356,0,0,0-.356.356v1.78H23.007L23,5.559h1.068Z" transform="translate(-15.525 -2)" fill="#2c2c2c"/>
  <path id="Path_94" data-name="Path 94" d="M3.424,2.356A.356.356,0,0,0,3.068,2H2.356A.356.356,0,0,0,2,2.356V7.339a.356.356,0,0,0,.356.356h.712a.356.356,0,0,0,.356-.356V5.559H4.492V4.136H3.424Z" transform="translate(-2 -2)" fill="#2c2c2c"/>
  <path id="Path_95" data-name="Path 95" d="M35,14.764a1.483,1.483,0,0,0,1.481,1.481h1.01v.712h-.745a2.089,2.089,0,0,1-.574,1.111l-.46.46v.614a1.018,1.018,0,0,0,1.881.54l.854-1.366a2.152,2.152,0,0,1,.31-.385,1.767,1.767,0,0,1-.553-1.288V15.031l.951-.951a.4.4,0,0,0-.282-.681H38.2v-.5a1.422,1.422,0,0,0-.973-1.351l-.429-.143-.123.216a1.786,1.786,0,0,1-1.114.844l-.383.1A.239.239,0,0,0,35,12.8a.242.242,0,0,0,.07.17l.337.337-.332.994a1.5,1.5,0,0,0-.075.468Z" transform="translate(-23.254 -8.059)" fill="#2c2c2c"/>
  <path id="Path_96" data-name="Path 96" d="M11.356,8.424H12.78a.356.356,0,0,0,.356-.356V7.356A.356.356,0,0,0,12.78,7H11.356A.356.356,0,0,0,11,7.356v.712A.356.356,0,0,0,11.356,8.424Z" transform="translate(-7.797 -5.22)" fill="#2c2c2c"/>
  <path id="Path_97" data-name="Path 97" d="M42.925,9.848a1.111,1.111,0,0,1,.753,1.9l-.742.742v.81l.656-.179a3.465,3.465,0,0,0,2.547-3.336,2.792,2.792,0,0,0-4.9-1.824l.233.078A2.133,2.133,0,0,1,42.925,9.848Z" transform="translate(-27.274 -5.22)" fill="#2c2c2c"/>
  <path id="Path_98" data-name="Path 98" d="M14.907,14.694l-.117.059a3.022,3.022,0,0,0,.164.41l-.637.319a3.748,3.748,0,0,1-.394-1.667V8.807L14.4,8.1a1.417,1.417,0,0,0,.239-.79V5a.713.713,0,0,0-.712.712V6.78a1.069,1.069,0,0,1-1.068,1.068H11.432a1.055,1.055,0,0,1-.314-.052,1.412,1.412,0,0,0,.375.678l.3.295v7.109a2.148,2.148,0,0,0,1.958,2.128l.918.077c-.017-.021-.036-.04-.052-.062l-.262-.349.569-.427.262.349a2.331,2.331,0,0,0,2.6.813l.175-.058a6.119,6.119,0,0,1,.321-3.485,1.554,1.554,0,0,1,.138-.261A4.24,4.24,0,0,0,14.907,14.694Z" transform="translate(-7.873 -3.932)" fill="#2c2c2c"/>
  <path id="Path_99" data-name="Path 99" d="M43.948,37.631l-.406-.608V35.886a4.349,4.349,0,0,0-.457-1.936,4.049,4.049,0,0,0-.66-.95h-.448a2.707,2.707,0,0,0-2.707,2.707,2.419,2.419,0,0,0,1.169,2.064l.862.517-3.019,2.588L37.163,40.5a.557.557,0,0,0-.673.279l-.157.314-.922.461a.744.744,0,0,0,.332,1.409,2.53,2.53,0,0,0,1.128-.267l1.569-.781,4.66-1.644a1.733,1.733,0,0,0,1.154-1.631A1.819,1.819,0,0,0,43.948,37.631Z" transform="translate(-23.254 -21.966)" fill="#2c2c2c"/>
  <path id="Path_100" data-name="Path 100" d="M33.068,39.042c.031-.019.06-.038.093-.055l.71-.355.051-.1a1.267,1.267,0,0,1,1.536-.635l.735.245,1.964-1.683-.015-.009a3.134,3.134,0,0,1-1.514-2.674,3.419,3.419,0,0,1,3.024-3.4l-.035-.021A2.514,2.514,0,0,0,38.325,30a1.417,1.417,0,0,0-1.208.669l-.853,1.365a1.73,1.73,0,0,1-3.2-.917v-.393a.811.811,0,0,0-.677.5A5.429,5.429,0,0,0,32,33.255a5.487,5.487,0,0,0,.576,2.44,4.678,4.678,0,0,1,.492,2.083Z" transform="translate(-21.322 -20.034)" fill="#2c2c2c"/>
</svg>
