<svg id="trainer_1_" data-name="trainer (1)" xmlns="http://www.w3.org/2000/svg" width="28.965" height="32.955" viewBox="0 0 28.965 32.955">
  <path id="Path_106" data-name="Path 106" d="M53.206,271H51.275v.955a4.844,4.844,0,0,1-4.838,4.838h-.955a2.9,2.9,0,0,1,2.9,2.9v3.862a.965.965,0,1,1-1.931,0V282.42a2.9,2.9,0,1,1-.965-5.627h-.955a4.844,4.844,0,0,1-4.838-4.838V271H37.758A6.766,6.766,0,0,0,31,277.758v2.9h6.758a.965.965,0,0,1,.965.965v4.892H52.241V281.62a.965.965,0,0,1,.965-.965h6.758v-2.9A6.766,6.766,0,0,0,53.206,271Z" transform="translate(-31 -253.557)"/>
  <path id="Path_107" data-name="Path 107" d="M391,454.926h4.827a.965.965,0,0,0,.966-.965V451H391Z" transform="translate(-367.828 -421.971)"/>
  <path id="Path_108" data-name="Path 108" d="M31,453.961a.965.965,0,0,0,.965.965h4.827V451H31Z" transform="translate(-31 -421.971)"/>
  <path id="Path_109" data-name="Path 109" d="M241.965,392.931a.965.965,0,1,0-.965-.965A.967.967,0,0,0,241.965,392.931Z" transform="translate(-227.483 -365.833)"/>
  <path id="Path_110" data-name="Path 110" d="M196.028,286.923a2.91,2.91,0,0,0,2.905,2.837h1.91a2.91,2.91,0,0,0,2.905-2.837A8.671,8.671,0,0,1,196.028,286.923Z" transform="translate(-185.406 -268.455)"/>
  <path id="Path_111" data-name="Path 111" d="M206.317,122.76l1.114-1.76h-7.176l1.114,1.76A9.814,9.814,0,0,1,206.317,122.76Z" transform="translate(-189.361 -113.212)"/>
  <path id="Path_112" data-name="Path 112" d="M164.517,4.827A4.833,4.833,0,0,0,159.689,0h-3.862A4.833,4.833,0,0,0,151,4.827v1.03h13.517Z" transform="translate(-143.276)"/>
  <path id="Path_113" data-name="Path 113" d="M157.758,130.655a6.766,6.766,0,0,0,6.758-6.758V121h-.885l-2.162,3.413a.966.966,0,0,1-1.121.4,7.859,7.859,0,0,0-5.183,0,.966.966,0,0,1-1.121-.4L151.885,121H151v2.9A6.766,6.766,0,0,0,157.758,130.655Z" transform="translate(-143.276 -113.212)"/>
</svg>
