<svg xmlns="http://www.w3.org/2000/svg" xmlns:xlink="http://www.w3.org/1999/xlink" width="388.217" height="290.001" viewBox="0 0 388.217 290.001">
  <defs>
    <linearGradient id="linear-gradient" x1="0.04" y1="1" x2="1.028" y2="0.025" gradientUnits="objectBoundingBox">
      <stop offset="0" stop-color="#171515"/>
      <stop offset="0.756" stop-color="#393737"/>
      <stop offset="1" stop-color="#646262"/>
    </linearGradient>
    <filter id="Ellipse_71" x="-53.882" y="103.135" width="121.826" height="101.569" filterUnits="userSpaceOnUse">
      <feOffset dy="3" input="SourceAlpha"/>
      <feGaussianBlur stdDeviation="8" result="blur"/>
      <feFlood flood-opacity="0.271"/>
      <feComposite operator="in" in2="blur"/>
      <feComposite in="SourceGraphic"/>
    </filter>
    <filter id="Ellipse_72" x="320.34" y="103.135" width="121.58" height="106.776" filterUnits="userSpaceOnUse">
      <feOffset dy="3" input="SourceAlpha"/>
      <feGaussianBlur stdDeviation="8" result="blur-2"/>
      <feFlood flood-opacity="0.271"/>
      <feComposite operator="in" in2="blur-2"/>
      <feComposite in="SourceGraphic"/>
    </filter>
    <filter id="Exclusion_3" x="0" y="0" width="388.217" height="290.001" filterUnits="userSpaceOnUse">
      <feOffset dy="3" input="SourceAlpha"/>
      <feGaussianBlur stdDeviation="8" result="blur-3"/>
      <feFlood flood-opacity="0.271"/>
      <feComposite operator="in" in2="blur-3"/>
      <feComposite in="SourceGraphic"/>
    </filter>
  </defs>
  <g transform="matrix(1, 0, 0, 1, 0, 0)" filter="url(#Exclusion_3)">
    <path id="Exclusion_3-2" data-name="Exclusion 3" d="M492,241H152V152.665l-.122.046h0V105.126l.123.047v47.492c12.226-4.643,19.821-13.742,19.821-23.747s-7.595-19.1-19.821-23.746V-1H492V105.456l.094-.039v52.212L492,157.59V241Zm0-135.545c-12.2,5.09-19.784,15.078-19.784,26.066S479.8,152.5,492,157.59Z" transform="translate(-127.88 22)" fill="url(#linear-gradient)"/>
  </g>
</svg>
