<svg id="user_6_" data-name="user (6)" xmlns="http://www.w3.org/2000/svg" width="42" height="40.333" viewBox="0 0 42 40.333">
  <g id="Group_3" data-name="Group 3" transform="translate(0 0)">
    <g id="Group_2" data-name="Group 2">
      <path id="Path_1" data-name="Path 1" d="M21,36.2a11.064,11.064,0,0,0,2.995-.438c.97,1.948,3.887,4.891,12.486,7.054,2.523.644,2.677,3.819,2.549,5.655a1.476,1.476,0,0,0,1.364,1.57h.1a1.471,1.471,0,0,0,1.467-1.364c.326-4.685-1.407-7.861-4.771-8.719-7.852-1.974-9.972-4.419-10.538-5.492a8.9,8.9,0,0,0,1.528-1.382c3.913-4.411,3.278-11.945,3.2-12.692-.455-9.783-8.118-10.65-10.461-10.684h-.172c-4.831.051-10.109,2.892-10.487,10.684-.077.747-.712,8.281,3.2,12.692a9.2,9.2,0,0,0,1.776,1.553c-.7,1.116-2.995,3.458-10.435,5.321-3.355.85-5.1,4.033-4.763,8.71a1.471,1.471,0,0,0,1.467,1.364h.1a1.476,1.476,0,0,0,1.364-1.57c-.129-1.836.034-5.012,2.549-5.655,8.358-2.094,11.37-4.951,12.426-6.968a11.3,11.3,0,0,0,2.7.36Zm-.215-2.943a6.574,6.574,0,0,1-5.115-2.12c-3.167-3.561-2.48-10.409-2.48-10.478,0-.034.009-.06.009-.094.309-6.814,4.883-7.886,7.586-7.912h.094c2.695.034,7.268,1.116,7.577,7.912a.292.292,0,0,0,.009.086c.009.069.7,6.917-2.48,10.478a6.533,6.533,0,0,1-5.115,2.12h-.086v.009Z" transform="translate(0 -9.714)" fill="#5e5e5e"/>
    </g>
  </g>
</svg>
