<svg xmlns="http://www.w3.org/2000/svg" width="105.215" height="75.24" viewBox="0 0 105.215 75.24">
  <g id="Group_347" data-name="Group 347" transform="translate(-8396.893 -3509.76)">
    <g id="Group_346" data-name="Group 346" transform="translate(8396.893 3509.75)" style="mix-blend-mode: luminosity;isolation: isolate">
      <ellipse id="Ellipse_44" data-name="Ellipse 44" cx="52.607" cy="3.307" rx="52.607" ry="3.307" transform="translate(0 68.636)" fill="#6c63ff" opacity="0.1"/>
      <path id="Path_132" data-name="Path 132" d="M1002.132,741.438a3.715,3.715,0,0,1-.08.778c-.01.048-.021.1-.032.141a2.443,2.443,0,0,1-2.045,2.029h-.1a2.419,2.419,0,0,1-2.152-2.077c-.008-.032-.015-.064-.022-.1a3.7,3.7,0,0,1-.08-.778c0-1.63,1.009-2.951,2.255-2.951S1002.132,739.81,1002.132,741.438Z" transform="translate(-905.169 -671.944)" fill="#3f3d56"/>
      <path id="Path_133" data-name="Path 133" d="M1002.168,741.483a3.707,3.707,0,0,1-.08.778c-.01.048-.021.1-.032.141h-.1a4.6,4.6,0,0,1-.737-.1,4.516,4.516,0,0,1-.657.15,4.58,4.58,0,0,1-.515.048h-.174a4.661,4.661,0,0,1-.618-.041,4.533,4.533,0,0,1-.969-.241,4.585,4.585,0,0,1-.523.14c-.008-.032-.015-.064-.022-.1a3.707,3.707,0,0,1-.08-.778c0-1.63,1.009-2.951,2.255-2.951S1002.168,739.855,1002.168,741.483Z" transform="translate(-905.205 -671.989)" opacity="0.1"/>
      <path id="Path_134" data-name="Path 134" d="M958.417,653.514a4.563,4.563,0,0,0-.491-2.064l-2.651.825,2.328-1.369a4.581,4.581,0,0,0-3.443-1.963,4.682,4.682,0,0,0-.358-.473l-3.808,1.185,3.123-1.836a4.583,4.583,0,0,0-7.215,2.443l3.262,3.756-3.538-2.56a6.635,6.635,0,1,0,12.609,3.693c0-.1,0-.2-.01-.3A4.576,4.576,0,0,0,958.417,653.514Z" transform="translate(-856.644 -589.516)" fill="#6c63ff"/>
      <path id="Path_135" data-name="Path 135" d="M958.3,712.179a12.19,12.19,0,0,0-4.243-.054c-1.592.264-3.22.843-4.777.419-.914-.248-1.7-.824-2.6-1.142a4.919,4.919,0,0,0-2.68-.161,7.154,7.154,0,0,0,14.188,1.726,3,3,0,0,0-.01-.3A4.522,4.522,0,0,0,958.3,712.179Z" transform="translate(-856.602 -647.331)" opacity="0.1"/>
      <rect id="Rectangle_103" data-name="Rectangle 103" width="1.033" height="8.519" rx="0.517" transform="translate(69.199 17.241)" fill="#3f3d56"/>
      <rect id="Rectangle_104" data-name="Rectangle 104" width="0.58" height="2.805" rx="0.29" transform="translate(34.847 10.567)" fill="#3f3d56"/>
      <rect id="Rectangle_105" data-name="Rectangle 105" width="0.653" height="4.882" rx="0.327" transform="translate(34.826 15.702)" fill="#3f3d56"/>
      <rect id="Rectangle_106" data-name="Rectangle 106" width="0.622" height="4.924" rx="0.311" transform="translate(34.836 22.291)" fill="#3f3d56"/>
      <rect id="Rectangle_107" data-name="Rectangle 107" width="34.581" height="70.28" rx="17.29" transform="translate(35.176 1.299)" fill="#3f3d56"/>
      <rect id="Rectangle_108" data-name="Rectangle 108" width="4.829" height="0.981" rx="0.491" transform="translate(49.13 3.397)" fill="#e6e8ec"/>
      <circle id="Ellipse_45" data-name="Ellipse 45" cx="0.556" cy="0.556" r="0.556" transform="translate(54.69 3.331)" fill="#e6e8ec"/>
      <path id="Path_136" data-name="Path 136" d="M477.66,108.447v61.125a2.747,2.747,0,0,1-2.747,2.746H450.1a2.747,2.747,0,0,1-2.747-2.746V108.447A2.747,2.747,0,0,1,450.1,105.7h3.714v.477a2.263,2.263,0,0,0,2.262,2.259H468.7a2.262,2.262,0,0,0,2.262-2.262V105.7h3.959a2.747,2.747,0,0,1,2.742,2.747Z" transform="translate(-410.039 -102.572)" fill="#fff"/>
      <path id="Path_137" data-name="Path 137" d="M477.877,278.6v20.785h-.217v.021H447.35V274.009q.292-.333.591-.69c4.257-5.083,10.043-6.421,14.521-6.561a21.014,21.014,0,0,1,9.038,1.794,17.2,17.2,0,0,0,6.16,1.467v7.858C477.807,278.3,477.877,278.6,477.877,278.6Z" transform="translate(-410.039 -247.481)" fill="#6c63ff" opacity="0.2"/>
      <path id="Path_138" data-name="Path 138" d="M477.877,354.8v20.785H447.35V361.968c1.087-.274,2.605-1.326,4.553-4.233a9.672,9.672,0,0,1,7.945-4.489,9.56,9.56,0,0,1,4.945,1.227c1.795.969,5.254,2.137,7.882-1.255,2.906-3.751,4.451-.657,4.984.859C477.807,354.5,477.877,354.8,477.877,354.8Z" transform="translate(-410.039 -323.683)" fill="#6c63ff" opacity="0.2"/>
      <rect id="Rectangle_109" data-name="Rectangle 109" width="24.249" height="7.616" rx="3.808" transform="translate(40.382 48.094)" fill="#736e9e"/>
      <path id="Path_139" data-name="Path 139" d="M149.17,727.673l1.918-1.131a4.607,4.607,0,0,0-.981-1.173l-3.618,1.129,2.836-1.667a4.609,4.609,0,0,0-6.824,4.043c0,2.546,2.063,2.634,4.609,2.634s4.609-.088,4.609-2.634a4.584,4.584,0,0,0-.4-1.87Z" transform="translate(-135.736 -659.152)" fill="#6c63ff"/>
      <path id="Path_140" data-name="Path 140" d="M149.631,756.682a3.591,3.591,0,0,0-.679-.534,3.178,3.178,0,0,0-1.119-.546,8.229,8.229,0,0,0-1.1-.031,2.572,2.572,0,0,1-1.684-.773,5.266,5.266,0,0,0-.783-.811,1.721,1.721,0,0,0-1.173-.215,3.324,3.324,0,0,0-.347.071,4.6,4.6,0,0,0-.273,1.564c0,2.546,2.063,2.635,4.609,2.635a9.663,9.663,0,0,0,3.185-.334l-.138-.259A3.619,3.619,0,0,0,149.631,756.682Z" transform="translate(-135.709 -685.686)" opacity="0.1"/>
      <path id="Path_141" data-name="Path 141" d="M299.5,649.241a1.2,1.2,0,0,0-.329.473c-.171.535.308,1.06.354,1.62a3.51,3.51,0,0,1-.335,1.287,2.777,2.777,0,0,0,.954,2.946.794.794,0,0,0,.319.164.718.718,0,0,0,.544-.16,1.459,1.459,0,0,0,.51-.673,2.923,2.923,0,0,0,.133-.819l.071-1.072a11,11,0,0,0-.131-3.373c-.089-.361-.255-1.189-.671-1.24S299.775,648.971,299.5,649.241Z" transform="translate(-276.628 -590.883)" fill="#3f3d56"/>
      <path id="Path_142" data-name="Path 142" d="M336.648,569.115a35.187,35.187,0,0,0-1.085,5.366,1.5,1.5,0,0,1-.219.731c-.308.414-.924.388-1.435.321a.6.6,0,0,1-.607-.723q-.525-5.118-.7-10.264c-.005-.131,4.278-.143,4.644.2s.082,1.629,0,2.067A21.755,21.755,0,0,1,336.648,569.115Z" transform="translate(-306.787 -515.362)" fill="#fbbebe"/>
      <path id="Path_143" data-name="Path 143" d="M336.648,569.115a35.187,35.187,0,0,0-1.085,5.366,1.5,1.5,0,0,1-.219.731c-.308.414-.924.388-1.435.321a.6.6,0,0,1-.607-.723q-.525-5.118-.7-10.264c-.005-.131,4.278-.143,4.644.2s.082,1.629,0,2.067A21.755,21.755,0,0,1,336.648,569.115Z" transform="translate(-306.787 -515.362)" opacity="0.05"/>
      <path id="Path_144" data-name="Path 144" d="M284,539.586l1.735,3.815a18.378,18.378,0,0,1,1.434,3.917,12.512,12.512,0,0,1,.211,1.728,6.514,6.514,0,0,1-.046,1.492c-.063.367-.179.723-.23,1.092-.2,1.47.632,2.853,1.2,4.221a12.726,12.726,0,0,1,.93,3.685,3.218,3.218,0,0,0,.39,1.559,4.221,4.221,0,0,1,1.7-.249,7.488,7.488,0,0,0-.64-2.505c-.368-1.553.445-3.185.168-4.758a11.969,11.969,0,0,1-.578-2.517,19.989,19.989,0,0,0,.066-4.71c-.339-1.745-1.313-3.331-1.528-5.094-.165-1.355.1-2.853-.654-3.991A4.648,4.648,0,0,0,284,539.586Z" transform="translate(-263.057 -490.891)" fill="#fbbebe"/>
      <path id="Path_145" data-name="Path 145" d="M334.69,764.326a.568.568,0,0,1-.483-.137.537.537,0,0,1-.087-.268A13.211,13.211,0,0,1,334,762.1a1.132,1.132,0,0,1,.134-.642,1.861,1.861,0,0,1,.31-.3c.266-.245.459-.6.8-.714a.864.864,0,0,1,.859.225,1.432,1.432,0,0,1,.381.841,2.754,2.754,0,0,0,.205,1.1c.078.125.187.227.276.346.3.4.57,1.185-.05,1.348A11.069,11.069,0,0,1,334.69,764.326Z" transform="translate(-308.046 -691.674)" fill="#3f3d56"/>
      <path id="Path_146" data-name="Path 146" d="M156.9,305.017a1.966,1.966,0,0,0-.36-2.124,3.677,3.677,0,0,0-1.981-1.069,5.2,5.2,0,0,0-3.035.136,14.907,14.907,0,0,0-2.128,1.216,9.68,9.68,0,0,1-4.083,1.3c-1.6.135-3.394-.075-4.633.946-2.271,1.87-.689,6.083-2.806,8.124a14.349,14.349,0,0,1-1.988,1.3,2.206,2.206,0,0,0-1.134,1.95,2.121,2.121,0,0,0,.5,1.016,4.925,4.925,0,0,0,4.37,1.751,5.3,5.3,0,0,0,3.908-2.68,3.331,3.331,0,0,1,.678-1.015c.632-.522,1.56-.311,2.38-.336a3.9,3.9,0,0,0,3.637-3.436c.068-.777-.064-1.68.494-2.226a3.433,3.433,0,0,1,1.769-.572,3.74,3.74,0,0,0,2.469-2.063c.236-.459.212-.972.563-1.353C155.887,305.461,156.565,305.66,156.9,305.017Z" transform="translate(-128.751 -278.898)" fill="#3f3d56"/>
      <g id="Group_57" data-name="Group 57" transform="translate(10.521 22.771)" opacity="0.1">
        <path id="Path_147" data-name="Path 147" d="M204.295,329.584a9.68,9.68,0,0,0,1.961-.374c-.18.025-.361.046-.542.061a13.781,13.781,0,0,0-3.764.442C202.722,329.634,203.53,329.648,204.295,329.584Z" transform="translate(-199.751 -326.456)"/>
        <path id="Path_148" data-name="Path 148" d="M183.426,443.364a3.25,3.25,0,0,0-.678,1.015A5.34,5.34,0,0,1,180,446.771c.089-.006.178-.014.268-.025a5.3,5.3,0,0,0,3.908-2.679,3.3,3.3,0,0,1,.678-1.015l.054-.042A2.149,2.149,0,0,0,183.426,443.364Z" transform="translate(-180 -428.85)"/>
        <path id="Path_149" data-name="Path 149" d="M305.931,302.957a3.7,3.7,0,0,0-1.981-1.069,5.206,5.206,0,0,0-3.036.137l-.064.026a5.823,5.823,0,0,1,1.681.149,3.692,3.692,0,0,1,1.981,1.07,1.968,1.968,0,0,1,.36,2.124c-.334.643-1.012.443-1.394.859-.351.38-.327.894-.563,1.353a3.9,3.9,0,0,1-2.014,1.926c.314-.074.65-.107.963-.175a3.743,3.743,0,0,0,2.469-2.063c.237-.459.213-.973.563-1.353.383-.416,1.061-.216,1.394-.859A1.971,1.971,0,0,0,305.931,302.957Z" transform="translate(-288.74 -301.727)"/>
        <path id="Path_150" data-name="Path 150" d="M255.762,380.8a3.432,3.432,0,0,0-1.769.571c-.558.546-.426,1.45-.494,2.226a3.915,3.915,0,0,1-2.31,3.125h.091a3.9,3.9,0,0,0,3.636-3.436c.069-.778-.063-1.681.5-2.227a1.363,1.363,0,0,1,.443-.283Z" transform="translate(-244.056 -372.859)"/>
      </g>
      <path id="Path_151" data-name="Path 151" d="M300.474,366.765a.733.733,0,0,1-.414.275,10.65,10.65,0,0,1-5.124.97c-.065-.274-.129-.548-.193-.822q-.139-.6-.281-1.19c-.044-.189-.089-.381-.125-.573h0a3.368,3.368,0,0,1-.059-.924,1.989,1.989,0,0,1,.06-.332,1.724,1.724,0,0,1,.255-.552c.02-.027.041-.054.063-.08h0a1.263,1.263,0,0,1,.355-.3c.3-.162.7-.231.821-.546a.849.849,0,0,0-.013-.5c-.1-.4-.282-.778-.394-1.174-.142-.5.072-.47.556-.591a6.141,6.141,0,0,1,2.678-.2,3.846,3.846,0,0,0,.028,1.326,1.3,1.3,0,0,0,.837.959c.063.018.13.029.2.044h0a.606.606,0,0,1,.258.106.439.439,0,0,1,.122.161,1.235,1.235,0,0,1,.085.331q.235,1.577.34,3.169v.04A.72.72,0,0,1,300.474,366.765Z" transform="translate(-272.296 -331.526)" fill="#fbbebe"/>
      <path id="Path_152" data-name="Path 152" d="M258.546,396.041a4.977,4.977,0,0,0-.615,1.937L257.2,402.2a2.545,2.545,0,0,0,.106,1.717,4.128,4.128,0,0,1,.314.5,2.767,2.767,0,0,1,.108.56,2.615,2.615,0,0,0,2.075,1.854,1.152,1.152,0,0,0,1.019-.111.883.883,0,0,0,.123-1.067,2.541,2.541,0,0,0-.815-.815l-1.039-.766.6-4.609c.044-.335.2-.769.539-.731.309.033.546.483.821.338a.408.408,0,0,0,.169-.249,3.031,3.031,0,0,0,.053-1.18l-.124-1.429a5.285,5.285,0,0,1,.134-1.248c.065-.508-.274-.354-.691-.245A3.426,3.426,0,0,0,258.546,396.041Z" transform="translate(-238.86 -362.529)" fill="#fbbebe"/>
      <path id="Path_153" data-name="Path 153" d="M338.705,392.764a.748.748,0,0,1-.325.295,3.7,3.7,0,0,1-2.671.376,5.784,5.784,0,0,0-.635-.148c-.343-.042-.691.026-1.037,0a2.9,2.9,0,0,1-1.8-1c-.293-.3-.558-.793-.286-1.115a.646.646,0,0,1,.6-.18,2.369,2.369,0,0,1,.608.226,6.7,6.7,0,0,0,2.123.585c.5.052,1.138-.033,1.312-.509a1.265,1.265,0,0,0-.034-.727l-.485-1.969a.542.542,0,0,0-.06-.163.215.215,0,0,0-.029-.038.454.454,0,0,0-.223-.1,2.084,2.084,0,0,1-1.015-.517,2.249,2.249,0,0,1-.413-.664c-.028-.061-.054-.123-.081-.185-.205-.479-.422-.97-.589-1.473a6.021,6.021,0,0,1-.258-1.045c-.044-.308-.068-.449.1-.585a1,1,0,0,1,.143-.09c.077-.041.164-.082.257-.121l.089-.037a6.152,6.152,0,0,1,.843-.269,2.049,2.049,0,0,1,1.915.707,4.241,4.241,0,0,1,.883,1.925c.158.7.239,1.41.438,2.1.077.269.173.533.239.8a7.7,7.7,0,0,1,.151.969q.141,1.246.282,2.491A.822.822,0,0,1,338.705,392.764Z" transform="translate(-306.098 -352.323)" fill="#fbbebe"/>
      <path id="Path_154" data-name="Path 154" d="M289.353,451a6.545,6.545,0,0,1-.933,3.708,3.161,3.161,0,0,0,1.078.444,21.437,21.437,0,0,0,7.736.582,2.355,2.355,0,0,0-.057-1.291c-.11-.247-.3-.449-.422-.691a2.615,2.615,0,0,1-.158-1.312l.179-3.791c-1.244-.573-2.686-.036-4.053.041a17.643,17.643,0,0,0-2.124.079c-.363.065-1.5.245-1.674.618S289.292,450.6,289.353,451Z" transform="translate(-267.034 -410.925)" fill="#fbbebe"/>
      <path id="Path_155" data-name="Path 155" d="M289.353,451a6.545,6.545,0,0,1-.933,3.708,3.161,3.161,0,0,0,1.078.444,21.437,21.437,0,0,0,7.736.582,2.355,2.355,0,0,0-.057-1.291c-.11-.247-.3-.449-.422-.691a2.615,2.615,0,0,1-.158-1.312l.179-3.791c-1.244-.573-2.686-.036-4.053.041a17.643,17.643,0,0,0-2.124.079c-.363.065-1.5.245-1.674.618S289.292,450.6,289.353,451Z" transform="translate(-267.034 -410.925)" opacity="0.05"/>
      <path id="Path_156" data-name="Path 156" d="M285.06,504.09a22.765,22.765,0,0,0-4.048-.777.357.357,0,0,0-.2.038.362.362,0,0,0-.126.219q-.213.737-.382,1.484a7.114,7.114,0,0,0,.264,4.973,1.473,1.473,0,0,1,.7-1.2,3.5,3.5,0,0,1,2.816-.249,1.959,1.959,0,0,1,1.139,1.593l4.735.153a.173.173,0,0,0,.22-.189,19.318,19.318,0,0,0-.019-4.57c-.052-.424-.059-1.012-.536-1.171a8.786,8.786,0,0,0-2.077.006A15.375,15.375,0,0,1,285.06,504.09Z" transform="translate(-259.447 -460.341)" fill="#3f3d56"/>
      <path id="Path_157" data-name="Path 157" d="M296.236,389.482l-.015,2.1-4.79.159a13.9,13.9,0,0,0-2.621.256c-.246.056-.49.126-.732.2a8.7,8.7,0,0,1-.435-2.837h0a3.732,3.732,0,0,1,.132-.752c.152-.529.438-1.028.59-1.551h0a2.371,2.371,0,0,0,.1-.627,3.047,3.047,0,0,0-.1-.628,1.923,1.923,0,0,1-.062-.516l.38-.117h0c.011.045.02.089.028.135.016.1.029.192.038.29h0a5.924,5.924,0,0,1,.02.724,2.119,2.119,0,0,0,.224,1.4c.392.49,1.145.414,1.761.292l1.611-.322a1.889,1.889,0,0,0,1.343-.688,1.529,1.529,0,0,0,.174-.7v-.048a5.533,5.533,0,0,0-.157-1.582c-.039-.162-.087-.323-.141-.48h.161a.607.607,0,0,1,.258.106.44.44,0,0,1,.122.161l.089-.037a14.018,14.018,0,0,0,1.736,4.108,1.872,1.872,0,0,1,.24.472,1.248,1.248,0,0,1,.04.279A1.618,1.618,0,0,1,296.236,389.482Z" transform="translate(-266.325 -353.156)" fill="#ff6f61"/>
      <circle id="Ellipse_46" data-name="Ellipse 46" cx="2.906" cy="2.906" r="2.906" transform="translate(21.945 24.145)" fill="#fbbebe"/>
      <path id="Path_158" data-name="Path 158" d="M258.546,408.133a4.977,4.977,0,0,0-.615,1.937l-.727,4.219a2.545,2.545,0,0,0,.106,1.717,4.123,4.123,0,0,1,.314.5,2.766,2.766,0,0,1,.108.56,2.615,2.615,0,0,0,2.075,1.854,1.152,1.152,0,0,0,1.019-.111.883.883,0,0,0,.123-1.067,2.541,2.541,0,0,0-.815-.815l-1.039-.766.6-4.609C259.737,411.221,259.01,407.425,258.546,408.133Z" transform="translate(-238.86 -374.62)" fill="#fbbebe"/>
      <path id="Path_159" data-name="Path 159" d="M337.63,409.131c.158.7.24,1.41.438,2.1.077.27.173.533.239.8a7.7,7.7,0,0,1,.151.968l.282,2.491a.826.826,0,0,1-.035.461.753.753,0,0,1-.325.295,3.708,3.708,0,0,1-2.671.376,5.357,5.357,0,0,0-.635-.148c-.343-.043-.691.026-1.037,0a2.917,2.917,0,0,1-1.8-1c-.293-.3-.558-.794-.286-1.116a.646.646,0,0,1,.6-.18,2.374,2.374,0,0,1,.608.227,6.722,6.722,0,0,0,2.123.584c.5.053,1.138-.032,1.312-.509a1.265,1.265,0,0,0-.034-.728l-.485-1.969C336.048,411.714,337.472,408.436,337.63,409.131Z" transform="translate(-306.098 -375.511)" fill="#fbbebe"/>
      <path id="Path_160" data-name="Path 160" d="M281.337,315.373c-.129-.464-.311-1.044.053-1.359a.843.843,0,0,1,.453-.173c.817-.1,1.661.381,2.443.124a1.359,1.359,0,0,0,.26-2.467,2.7,2.7,0,0,0-1.143-.275,6.709,6.709,0,0,0-3.088.2,2.319,2.319,0,0,0-1.587,2.395,3.127,3.127,0,0,0,.7,1.3c.235.3,1.18,1.7,1.56,1.683C281.523,316.769,281.421,315.675,281.337,315.373Z" transform="translate(-258.285 -287.427)" fill="#3f3d56"/>
      <path id="Path_161" data-name="Path 161" d="M301.366,313.917a1.355,1.355,0,0,0-.18-.087,1.357,1.357,0,0,1-.491,2.295c-.782.257-1.626-.224-2.443-.124a.842.842,0,0,0-.453.173c-.364.315-.182.895-.053,1.359.084.3.186,1.4-.347,1.426h-.009c.165.161.315.267.421.26.533-.03.431-1.124.347-1.426-.129-.464-.311-1.044.053-1.359a.843.843,0,0,1,.453-.173c.817-.1,1.661.381,2.443.124a1.359,1.359,0,0,0,.259-2.467Z" transform="translate(-275.106 -289.846)" opacity="0.1"/>
      <rect id="Rectangle_110" data-name="Rectangle 110" width="32.667" height="10.121" transform="translate(36.274 60.219)" fill="#3f3d56"/>
      <path id="Path_162" data-name="Path 162" d="M586,708.08v3.577l2.806-1.789Z" transform="translate(-534.796 -644.591)" fill="#fff"/>
      <path id="Path_163" data-name="Path 163" d="M231.66,78l-1.555.986.944-1.716a1.537,1.537,0,0,0-.941-.336h-.025a1.82,1.82,0,0,1-.323-.024l-.527.334.226-.411a1.866,1.866,0,0,1-.922-.7l-.944.6.6-1.083a2.761,2.761,0,0,0-2.113-1.068,2.9,2.9,0,0,0-2.419,1.492,1.8,1.8,0,0,1-1.6.862H222c-1.083,0-1.961,1.228-1.961,2.743s.878,2.743,1.961,2.743a1.476,1.476,0,0,0,.683-.171,2.825,2.825,0,0,1,2.373-.046,2.471,2.471,0,0,0,2.018,0,2.831,2.831,0,0,1,2.353.046,1.468,1.468,0,0,0,.675.167c1.083,0,1.961-1.229,1.961-2.743A3.478,3.478,0,0,0,231.66,78Z" transform="translate(-205.506 -74.57)" fill="#f2f2f2"/>
      <path id="Path_164" data-name="Path 164" d="M228.791,114.1a2.9,2.9,0,0,0-1.677.182,2.476,2.476,0,0,1-2.018,0,2.828,2.828,0,0,0-2.373.047,1.478,1.478,0,0,1-.683.17c-.962,0-1.763-.969-1.929-2.248a1.872,1.872,0,0,0,.481-.518,2.7,2.7,0,0,1,4.824-.017,1.855,1.855,0,0,0,1.6.873h.025A2.014,2.014,0,0,1,228.791,114.1Z" transform="translate(-205.569 -106.657)" opacity="0.03"/>
      <path id="Path_165" data-name="Path 165" d="M814.974,316.461l-.776.492.471-.857a.769.769,0,0,0-.469-.167h-.013a.943.943,0,0,1-.16-.011l-.268.168.113-.205a.932.932,0,0,1-.46-.349l-.471.3.3-.54a1.377,1.377,0,0,0-1.054-.533,1.433,1.433,0,0,0-1.2.745.9.9,0,0,1-.8.43h-.026c-.54,0-.978.613-.978,1.368s.438,1.369.978,1.369a.736.736,0,0,0,.341-.085,1.411,1.411,0,0,1,1.183-.024,1.228,1.228,0,0,0,.5.109,1.257,1.257,0,0,0,.5-.106,1.414,1.414,0,0,1,1.173.022.729.729,0,0,0,.337.084c.54,0,.978-.613.978-1.369a1.733,1.733,0,0,0-.2-.841Z" transform="translate(-735.612 -290.683)" fill="#f2f2f2"/>
      <path id="Path_166" data-name="Path 166" d="M813.526,334.444a1.435,1.435,0,0,0-.838.091,1.231,1.231,0,0,1-1,0,1.415,1.415,0,0,0-1.183.023.734.734,0,0,1-.341.086c-.48,0-.879-.484-.962-1.121a.923.923,0,0,0,.24-.258,1.347,1.347,0,0,1,2.4-.009.924.924,0,0,0,.8.438h.012A1,1,0,0,1,813.526,334.444Z" transform="translate(-735.63 -306.663)" opacity="0.03"/>
      <path id="Path_167" data-name="Path 167" d="M881.151,179.63l1.246.791-.758-1.376a1.235,1.235,0,0,1,.754-.269h.02a1.469,1.469,0,0,0,.259-.019l.423.268-.181-.329a1.509,1.509,0,0,0,.738-.561l.757.479-.478-.868a2.21,2.21,0,0,1,1.693-.856,2.319,2.319,0,0,1,1.938,1.2,1.448,1.448,0,0,0,1.282.69h.042c.868,0,1.571.984,1.571,2.2s-.7,2.2-1.571,2.2a1.184,1.184,0,0,1-.547-.137,2.264,2.264,0,0,0-1.9-.037,1.981,1.981,0,0,1-1.616,0,2.267,2.267,0,0,0-1.885.036,1.188,1.188,0,0,1-.542.134c-.868,0-1.571-.984-1.571-2.2A2.794,2.794,0,0,1,881.151,179.63Z" transform="translate(-800.073 -166.628)" fill="#f2f2f2"/>
      <path id="Path_168" data-name="Path 168" d="M907.56,208.534a2.318,2.318,0,0,1,1.347.146,1.981,1.981,0,0,0,1.616,0,2.268,2.268,0,0,1,1.9.038,1.182,1.182,0,0,0,.547.136c.771,0,1.412-.777,1.546-1.8a1.46,1.46,0,0,1-.386-.416,2.167,2.167,0,0,0-3.868-.013,1.486,1.486,0,0,1-1.281.7h-.02A1.617,1.617,0,0,0,907.56,208.534Z" transform="translate(-824.134 -192.317)" opacity="0.03"/>
    </g>
  </g>
</svg>
