<svg xmlns="http://www.w3.org/2000/svg" width="83.162" height="17.91" viewBox="0 0 83.162 17.91">
  <g id="Group_245" data-name="Group 245" transform="translate(-203 -380.091)">
    <text id="VOLT_Services" data-name="VOLT Services" transform="translate(229.162 392.218)" fill="#171515" font-size="9" font-family="OpenSans-Light, Open Sans" font-weight="300"><tspan x="0" y="0">VOLT Services</tspan></text>
    <g id="new_2_" data-name="new (2)" transform="translate(203 380.091)">
      <g id="Group_233" data-name="Group 233">
        <g id="Group_232" data-name="Group 232">
          <path id="Path_504" data-name="Path 504" d="M17.064,7.665a2.051,2.051,0,0,1-.611-.718,2.1,2.1,0,0,1,.171-.967,1.893,1.893,0,0,0,.087-1.5A1.912,1.912,0,0,0,15.352,3.8a2.077,2.077,0,0,1-.909-.328,2.077,2.077,0,0,1-.327-.908,1.909,1.909,0,0,0-.682-1.36,1.893,1.893,0,0,0-1.5.087,2.109,2.109,0,0,1-.967.171,2.052,2.052,0,0,1-.718-.611C9.869.43,9.48,0,8.955,0S8.04.43,7.665.846a2.05,2.05,0,0,1-.718.611,2.11,2.11,0,0,1-.967-.171,1.892,1.892,0,0,0-1.5-.087A1.912,1.912,0,0,0,3.8,2.558a2.077,2.077,0,0,1-.328.909,2.077,2.077,0,0,1-.908.327,1.908,1.908,0,0,0-1.36.682,1.893,1.893,0,0,0,.087,1.5,2.1,2.1,0,0,1,.171.967,2.052,2.052,0,0,1-.611.718C.43,8.04,0,8.429,0,8.955s.43.915.846,1.291a2.05,2.05,0,0,1,.611.718,2.1,2.1,0,0,1-.171.967,1.893,1.893,0,0,0-.087,1.5,1.912,1.912,0,0,0,1.359.682,2.077,2.077,0,0,1,.909.327,2.077,2.077,0,0,1,.327.908,1.908,1.908,0,0,0,.682,1.36,1.893,1.893,0,0,0,1.5-.087,2.109,2.109,0,0,1,.967-.171,2.052,2.052,0,0,1,.718.611c.376.416.766.846,1.291.846s.915-.43,1.291-.846a2.05,2.05,0,0,1,.718-.611,2.11,2.11,0,0,1,.967.171,1.891,1.891,0,0,0,1.5.087,1.912,1.912,0,0,0,.682-1.359,2.077,2.077,0,0,1,.327-.909,2.077,2.077,0,0,1,.908-.327,1.909,1.909,0,0,0,1.36-.682,1.893,1.893,0,0,0-.087-1.5,2.1,2.1,0,0,1-.171-.967,2.052,2.052,0,0,1,.611-.718c.416-.376.846-.766.846-1.291S17.48,8.04,17.064,7.665Zm-.4,2.138a2.358,2.358,0,0,0-.787,1.007,2.426,2.426,0,0,0,.179,1.3c.128.4.258.813.139,1.022s-.554.308-.969.4a2.392,2.392,0,0,0-1.2.488,2.4,2.4,0,0,0-.488,1.205c-.09.415-.182.844-.4.968s-.623-.011-1.022-.139a2.431,2.431,0,0,0-1.3-.179,2.356,2.356,0,0,0-1.007.787c-.289.319-.588.65-.849.65s-.559-.33-.849-.65A2.358,2.358,0,0,0,7.1,15.876a1.178,1.178,0,0,0-.3-.038h0a3.445,3.445,0,0,0-1,.216c-.4.128-.813.258-1.022.139s-.308-.554-.4-.969a2.392,2.392,0,0,0-.488-1.2,2.4,2.4,0,0,0-1.205-.488c-.415-.09-.844-.182-.968-.4s.011-.621.139-1.021a2.425,2.425,0,0,0,.179-1.3A2.356,2.356,0,0,0,1.247,9.8C.927,9.514.6,9.215.6,8.955s.33-.559.651-.849A2.358,2.358,0,0,0,2.035,7.1a2.426,2.426,0,0,0-.179-1.3c-.128-.4-.258-.813-.139-1.022s.554-.308.969-.4a2.392,2.392,0,0,0,1.2-.488,2.4,2.4,0,0,0,.488-1.205c.09-.415.182-.844.4-.968s.621.011,1.021.139a2.424,2.424,0,0,0,1.3.179,2.356,2.356,0,0,0,1.007-.787C8.4.927,8.694.6,8.955.6s.559.33.849.65a2.358,2.358,0,0,0,1.007.787,2.429,2.429,0,0,0,1.3-.179c.4-.128.813-.258,1.022-.139s.308.554.4.969a2.392,2.392,0,0,0,.488,1.2,2.4,2.4,0,0,0,1.205.488c.415.09.844.182.968.4s-.011.623-.139,1.022a2.425,2.425,0,0,0-.179,1.3,2.356,2.356,0,0,0,.787,1.007c.319.289.65.588.65.849S16.983,9.514,16.663,9.8Z"/>
          <path id="Path_505" data-name="Path 505" d="M232.3,65.194a.3.3,0,0,0,.3-.3v-.6a.3.3,0,0,0-.6,0v.6A.3.3,0,0,0,232.3,65.194Z" transform="translate(-223.344 -61.612)"/>
          <path id="Path_506" data-name="Path 506" d="M188.632,70.478a.3.3,0,0,0,.288.221.29.29,0,0,0,.078-.01.3.3,0,0,0,.211-.365l-.155-.577,0-.016a.3.3,0,0,0-.572.17Z" transform="translate(-181.434 -66.924)"/>
          <path id="Path_507" data-name="Path 507" d="M148.522,86.607l0,0a.3.3,0,1,0-.515.3l.3.517a.3.3,0,0,0,.517-.3Z" transform="translate(-142.444 -83.231)"/>
          <path id="Path_508" data-name="Path 508" d="M113.615,114.037a.3.3,0,1,0,.422-.422l-.422-.422-.007-.007a.3.3,0,0,0-.415.429Z" transform="translate(-108.882 -108.882)"/>
          <path id="Path_509" data-name="Path 509" d="M113.712,339.662l-.422.422a.3.3,0,1,0,.422.422l.422-.422a.3.3,0,0,0-.422-.422Z" transform="translate(-108.978 -326.908)"/>
          <path id="Path_510" data-name="Path 510" d="M148.755,363.717a.3.3,0,0,0-.408.107l-.3.517a.3.3,0,1,0,.517.3l.3-.517A.3.3,0,0,0,148.755,363.717Z" transform="translate(-142.486 -350.107)"/>
          <path id="Path_511" data-name="Path 511" d="M189.05,378.866a.3.3,0,0,0-.367.209l-.154.576a.3.3,0,1,0,.576.155l.155-.577A.3.3,0,0,0,189.05,378.866Z" transform="translate(-181.485 -364.719)"/>
          <path id="Path_512" data-name="Path 512" d="M232.3,384a.3.3,0,0,0-.3.3v.6a.3.3,0,0,0,.6,0v-.6A.3.3,0,0,0,232.3,384Z" transform="translate(-223.344 -369.672)"/>
          <path id="Path_513" data-name="Path 513" d="M271.938,379.075a.3.3,0,0,0-.577.154l.155.577a.3.3,0,1,0,.576-.155Z" transform="translate(-261.227 -364.719)"/>
          <path id="Path_514" data-name="Path 514" d="M283.48,410.272Z" transform="translate(-272.903 -394.964)"/>
          <path id="Path_515" data-name="Path 515" d="M308.522,363.736l0,0a.3.3,0,0,0-.515.3l.3.517a.3.3,0,1,0,.517-.3Z" transform="translate(-296.473 -350.019)"/>
          <path id="Path_516" data-name="Path 516" d="M340.084,339.662a.3.3,0,0,0-.422.422l.422.422a.3.3,0,0,0,.422-.422Z" transform="translate(-326.908 -326.908)"/>
          <path id="Path_517" data-name="Path 517" d="M339.78,114.125h0a.3.3,0,0,0,.211-.087l.422-.422.007-.007a.3.3,0,0,0-.429-.415l-.422.422a.3.3,0,0,0,.211.51Z" transform="translate(-326.815 -108.882)"/>
          <path id="Path_518" data-name="Path 518" d="M308.306,87.573a.3.3,0,0,0,.259-.149l.3-.517,0,0a.3.3,0,1,0-.519-.295l-.3.517a.3.3,0,0,0,.258.448Z" transform="translate(-296.516 -83.231)"/>
          <path id="Path_519" data-name="Path 519" d="M271.564,70.689a.291.291,0,0,0,.078.01h0a.3.3,0,0,0,.288-.221l.154-.576,0-.016a.3.3,0,1,0-.581-.139l-.155.577A.3.3,0,0,0,271.564,70.689Z" transform="translate(-261.219 -66.924)"/>
          <path id="Path_520" data-name="Path 520" d="M194.686,180.179H192.6v-1.492h1.492a.3.3,0,1,0,0-.6H192.6V176.6h2.089a.3.3,0,0,0,0-.6H192.3a.3.3,0,0,0-.3.3v4.179a.3.3,0,0,0,.3.3h2.388a.3.3,0,0,0,0-.6Z" transform="translate(-184.836 -169.433)"/>
          <path id="Path_521" data-name="Path 521" d="M75.072,180.664a.291.291,0,0,0,.073.063l.03.019a.292.292,0,0,0,.124.03.3.3,0,0,0,.1-.021l.033-.016a.308.308,0,0,0,.036-.019c.007,0,.01-.012.016-.017a.279.279,0,0,0,.043-.045.235.235,0,0,0,.05-.1.306.306,0,0,0,.012-.06c0-.008,0-.016,0-.024V176.3a.3.3,0,0,0-.3-.3h0a.3.3,0,0,0-.3.3v3.248l-2.444-3.421c0-.007-.012-.01-.017-.016a.28.28,0,0,0-.045-.043.3.3,0,0,0-.045-.03.309.309,0,0,0-.052-.019.274.274,0,0,0-.06-.012c-.008,0-.015,0-.023,0l-.03.006a.279.279,0,0,0-.06.012.3.3,0,0,0-.056.025l-.028.013c-.007,0-.01.012-.016.017a.279.279,0,0,0-.043.045.292.292,0,0,0-.03.045.287.287,0,0,0-.02.053.3.3,0,0,0-.012.06c0,.008,0,.016,0,.024v4.177a.3.3,0,0,0,.6,0V177.23l2.444,3.421C75.061,180.657,75.067,180.659,75.072,180.664Z" transform="translate(-69.329 -169.433)"/>
          <path id="Path_522" data-name="Path 522" d="M284.537,176h0a.3.3,0,0,0-.355.229h0l-.666,3.11-.848-2.544a.3.3,0,0,0-.567,0l-.847,2.544-.666-3.11a.3.3,0,1,0-.584.125l.9,4.179a.3.3,0,0,0,.574.032l.912-2.732.911,2.732a.3.3,0,0,0,.283.2h.017a.3.3,0,0,0,.275-.235l.9-4.179A.3.3,0,0,0,284.537,176Z" transform="translate(-269.549 -169.429)"/>
        </g>
      </g>
    </g>
  </g>
</svg>
